<mxfile host="app.diagrams.net" agent="Mozilla/5.0 (X11; Linux x86_64) AppleWebKit/537.36 (KHTML, like Gecko) Chrome/128.0.0.0 Safari/537.36" version="25.0.3">
  <diagram name="Page-1" id="hkKIxazmlNXfrslxLoVo">
    <mxGraphModel dx="2037" dy="1313" grid="0" gridSize="10" guides="1" tooltips="1" connect="1" arrows="1" fold="1" page="1" pageScale="1" pageWidth="850" pageHeight="1100" math="0" shadow="0">
      <root>
        <mxCell id="0" />
        <mxCell id="1" parent="0" />
        <mxCell id="sCM_ybp7lxL3_3aXqTB7-169" value="Пользователи" style="swimlane;fontStyle=0;childLayout=stackLayout;horizontal=1;startSize=26;horizontalStack=0;resizeParent=1;resizeParentMax=0;resizeLast=0;collapsible=1;marginBottom=0;align=center;fontSize=14;" parent="1" vertex="1">
          <mxGeometry x="300" y="30" width="160" height="198" as="geometry" />
        </mxCell>
        <mxCell id="sCM_ybp7lxL3_3aXqTB7-171" value="UID" style="text;strokeColor=none;fillColor=none;spacingLeft=4;spacingRight=4;overflow=hidden;rotatable=0;points=[[0,0.5],[1,0.5]];portConstraint=eastwest;fontSize=12;whiteSpace=wrap;html=1;" parent="sCM_ybp7lxL3_3aXqTB7-169" vertex="1">
          <mxGeometry y="26" width="160" height="30" as="geometry" />
        </mxCell>
        <mxCell id="sCM_ybp7lxL3_3aXqTB7-172" value="Адрес кошелька" style="text;strokeColor=none;fillColor=none;spacingLeft=4;spacingRight=4;overflow=hidden;rotatable=0;points=[[0,0.5],[1,0.5]];portConstraint=eastwest;fontSize=12;whiteSpace=wrap;html=1;" parent="sCM_ybp7lxL3_3aXqTB7-169" vertex="1">
          <mxGeometry y="56" width="160" height="32" as="geometry" />
        </mxCell>
        <mxCell id="sCM_ybp7lxL3_3aXqTB7-173" value="Логин" style="text;strokeColor=none;fillColor=none;spacingLeft=4;spacingRight=4;overflow=hidden;rotatable=0;points=[[0,0.5],[1,0.5]];portConstraint=eastwest;fontSize=12;whiteSpace=wrap;html=1;" parent="sCM_ybp7lxL3_3aXqTB7-169" vertex="1">
          <mxGeometry y="88" width="160" height="34" as="geometry" />
        </mxCell>
        <mxCell id="sCM_ybp7lxL3_3aXqTB7-174" value="Пароль" style="text;strokeColor=none;fillColor=none;spacingLeft=4;spacingRight=4;overflow=hidden;rotatable=0;points=[[0,0.5],[1,0.5]];portConstraint=eastwest;fontSize=12;whiteSpace=wrap;html=1;" parent="sCM_ybp7lxL3_3aXqTB7-169" vertex="1">
          <mxGeometry y="122" width="160" height="36" as="geometry" />
        </mxCell>
        <mxCell id="sCM_ybp7lxL3_3aXqTB7-175" value="Роль" style="text;strokeColor=none;fillColor=none;spacingLeft=4;spacingRight=4;overflow=hidden;rotatable=0;points=[[0,0.5],[1,0.5]];portConstraint=eastwest;fontSize=12;whiteSpace=wrap;html=1;" parent="sCM_ybp7lxL3_3aXqTB7-169" vertex="1">
          <mxGeometry y="158" width="160" height="40" as="geometry" />
        </mxCell>
        <mxCell id="sCM_ybp7lxL3_3aXqTB7-258" style="edgeStyle=orthogonalEdgeStyle;rounded=0;orthogonalLoop=1;jettySize=auto;html=1;" parent="1" source="sCM_ybp7lxL3_3aXqTB7-177" target="sCM_ybp7lxL3_3aXqTB7-175" edge="1">
          <mxGeometry relative="1" as="geometry" />
        </mxCell>
        <mxCell id="sCM_ybp7lxL3_3aXqTB7-177" value="Роли" style="swimlane;fontStyle=0;childLayout=stackLayout;horizontal=1;startSize=26;horizontalStack=0;resizeParent=1;resizeParentMax=0;resizeLast=0;collapsible=1;marginBottom=0;align=center;fontSize=14;" parent="1" vertex="1">
          <mxGeometry x="105" y="241" width="160" height="70" as="geometry" />
        </mxCell>
        <mxCell id="sCM_ybp7lxL3_3aXqTB7-179" value="Название" style="text;strokeColor=none;fillColor=none;spacingLeft=4;spacingRight=4;overflow=hidden;rotatable=0;points=[[0,0.5],[1,0.5]];portConstraint=eastwest;fontSize=12;whiteSpace=wrap;html=1;" parent="sCM_ybp7lxL3_3aXqTB7-177" vertex="1">
          <mxGeometry y="26" width="160" height="44" as="geometry" />
        </mxCell>
        <mxCell id="sCM_ybp7lxL3_3aXqTB7-180" value="Транзакции" style="swimlane;fontStyle=0;childLayout=stackLayout;horizontal=1;startSize=26;horizontalStack=0;resizeParent=1;resizeParentMax=0;resizeLast=0;collapsible=1;marginBottom=0;align=center;fontSize=14;" parent="1" vertex="1">
          <mxGeometry x="536" y="453" width="160" height="280" as="geometry" />
        </mxCell>
        <mxCell id="sCM_ybp7lxL3_3aXqTB7-182" value="Хэш транзакции" style="text;strokeColor=none;fillColor=none;spacingLeft=4;spacingRight=4;overflow=hidden;rotatable=0;points=[[0,0.5],[1,0.5]];portConstraint=eastwest;fontSize=12;whiteSpace=wrap;html=1;" parent="sCM_ybp7lxL3_3aXqTB7-180" vertex="1">
          <mxGeometry y="26" width="160" height="44" as="geometry" />
        </mxCell>
        <mxCell id="sCM_ybp7lxL3_3aXqTB7-183" value="Смарт контракт" style="text;strokeColor=none;fillColor=none;spacingLeft=4;spacingRight=4;overflow=hidden;rotatable=0;points=[[0,0.5],[1,0.5]];portConstraint=eastwest;fontSize=12;whiteSpace=wrap;html=1;" parent="sCM_ybp7lxL3_3aXqTB7-180" vertex="1">
          <mxGeometry y="70" width="160" height="40" as="geometry" />
        </mxCell>
        <mxCell id="sCM_ybp7lxL3_3aXqTB7-184" value="Тип транзакции" style="text;strokeColor=none;fillColor=none;spacingLeft=4;spacingRight=4;overflow=hidden;rotatable=0;points=[[0,0.5],[1,0.5]];portConstraint=eastwest;fontSize=12;whiteSpace=wrap;html=1;" parent="sCM_ybp7lxL3_3aXqTB7-180" vertex="1">
          <mxGeometry y="110" width="160" height="34" as="geometry" />
        </mxCell>
        <mxCell id="sCM_ybp7lxL3_3aXqTB7-185" value="Продукт" style="text;strokeColor=none;fillColor=none;spacingLeft=4;spacingRight=4;overflow=hidden;rotatable=0;points=[[0,0.5],[1,0.5]];portConstraint=eastwest;fontSize=12;whiteSpace=wrap;html=1;" parent="sCM_ybp7lxL3_3aXqTB7-180" vertex="1">
          <mxGeometry y="144" width="160" height="36" as="geometry" />
        </mxCell>
        <mxCell id="sCM_ybp7lxL3_3aXqTB7-186" value="Дата транзакции" style="text;strokeColor=none;fillColor=none;spacingLeft=4;spacingRight=4;overflow=hidden;rotatable=0;points=[[0,0.5],[1,0.5]];portConstraint=eastwest;fontSize=12;whiteSpace=wrap;html=1;" parent="sCM_ybp7lxL3_3aXqTB7-180" vertex="1">
          <mxGeometry y="180" width="160" height="35" as="geometry" />
        </mxCell>
        <mxCell id="sCM_ybp7lxL3_3aXqTB7-187" value="Адрес владельца" style="text;strokeColor=none;fillColor=none;spacingLeft=4;spacingRight=4;overflow=hidden;rotatable=0;points=[[0,0.5],[1,0.5]];portConstraint=eastwest;fontSize=12;whiteSpace=wrap;html=1;" parent="sCM_ybp7lxL3_3aXqTB7-180" vertex="1">
          <mxGeometry y="215" width="160" height="31" as="geometry" />
        </mxCell>
        <mxCell id="sCM_ybp7lxL3_3aXqTB7-188" value="Адрес получателя" style="text;strokeColor=none;fillColor=none;spacingLeft=4;spacingRight=4;overflow=hidden;rotatable=0;points=[[0,0.5],[1,0.5]];portConstraint=eastwest;fontSize=12;whiteSpace=wrap;html=1;" parent="sCM_ybp7lxL3_3aXqTB7-180" vertex="1">
          <mxGeometry y="246" width="160" height="34" as="geometry" />
        </mxCell>
        <mxCell id="sCM_ybp7lxL3_3aXqTB7-267" style="edgeStyle=orthogonalEdgeStyle;rounded=0;orthogonalLoop=1;jettySize=auto;html=1;" parent="1" source="sCM_ybp7lxL3_3aXqTB7-190" target="sCM_ybp7lxL3_3aXqTB7-185" edge="1">
          <mxGeometry relative="1" as="geometry">
            <Array as="points">
              <mxPoint x="386" y="615" />
            </Array>
          </mxGeometry>
        </mxCell>
        <mxCell id="sCM_ybp7lxL3_3aXqTB7-190" value="Продукты" style="swimlane;fontStyle=0;childLayout=stackLayout;horizontal=1;startSize=26;horizontalStack=0;resizeParent=1;resizeParentMax=0;resizeLast=0;collapsible=1;marginBottom=0;align=center;fontSize=14;" parent="1" vertex="1">
          <mxGeometry x="306" y="628" width="160" height="228" as="geometry" />
        </mxCell>
        <mxCell id="sCM_ybp7lxL3_3aXqTB7-191" value="UID" style="text;strokeColor=none;fillColor=none;spacingLeft=4;spacingRight=4;overflow=hidden;rotatable=0;points=[[0,0.5],[1,0.5]];portConstraint=eastwest;fontSize=12;whiteSpace=wrap;html=1;" parent="sCM_ybp7lxL3_3aXqTB7-190" vertex="1">
          <mxGeometry y="26" width="160" height="30" as="geometry" />
        </mxCell>
        <mxCell id="sCM_ybp7lxL3_3aXqTB7-192" value="Название" style="text;strokeColor=none;fillColor=none;spacingLeft=4;spacingRight=4;overflow=hidden;rotatable=0;points=[[0,0.5],[1,0.5]];portConstraint=eastwest;fontSize=12;whiteSpace=wrap;html=1;" parent="sCM_ybp7lxL3_3aXqTB7-190" vertex="1">
          <mxGeometry y="56" width="160" height="30" as="geometry" />
        </mxCell>
        <mxCell id="sCM_ybp7lxL3_3aXqTB7-193" value="Описание" style="text;strokeColor=none;fillColor=none;spacingLeft=4;spacingRight=4;overflow=hidden;rotatable=0;points=[[0,0.5],[1,0.5]];portConstraint=eastwest;fontSize=12;whiteSpace=wrap;html=1;" parent="sCM_ybp7lxL3_3aXqTB7-190" vertex="1">
          <mxGeometry y="86" width="160" height="27" as="geometry" />
        </mxCell>
        <mxCell id="sCM_ybp7lxL3_3aXqTB7-194" value="Ончейн - Адрес" style="text;strokeColor=none;fillColor=none;spacingLeft=4;spacingRight=4;overflow=hidden;rotatable=0;points=[[0,0.5],[1,0.5]];portConstraint=eastwest;fontSize=12;whiteSpace=wrap;html=1;" parent="sCM_ybp7lxL3_3aXqTB7-190" vertex="1">
          <mxGeometry y="113" width="160" height="30" as="geometry" />
        </mxCell>
        <mxCell id="sCM_ybp7lxL3_3aXqTB7-195" value="Адрес владельца" style="text;strokeColor=none;fillColor=none;spacingLeft=4;spacingRight=4;overflow=hidden;rotatable=0;points=[[0,0.5],[1,0.5]];portConstraint=eastwest;fontSize=12;whiteSpace=wrap;html=1;" parent="sCM_ybp7lxL3_3aXqTB7-190" vertex="1">
          <mxGeometry y="143" width="160" height="28" as="geometry" />
        </mxCell>
        <mxCell id="sCM_ybp7lxL3_3aXqTB7-196" value="Метадата" style="text;strokeColor=none;fillColor=none;spacingLeft=4;spacingRight=4;overflow=hidden;rotatable=0;points=[[0,0.5],[1,0.5]];portConstraint=eastwest;fontSize=12;whiteSpace=wrap;html=1;" parent="sCM_ybp7lxL3_3aXqTB7-190" vertex="1">
          <mxGeometry y="171" width="160" height="28" as="geometry" />
        </mxCell>
        <mxCell id="sCM_ybp7lxL3_3aXqTB7-197" value="Тип продукта" style="text;strokeColor=none;fillColor=none;spacingLeft=4;spacingRight=4;overflow=hidden;rotatable=0;points=[[0,0.5],[1,0.5]];portConstraint=eastwest;fontSize=12;whiteSpace=wrap;html=1;" parent="sCM_ybp7lxL3_3aXqTB7-190" vertex="1">
          <mxGeometry y="199" width="160" height="29" as="geometry" />
        </mxCell>
        <mxCell id="sCM_ybp7lxL3_3aXqTB7-266" style="edgeStyle=orthogonalEdgeStyle;rounded=0;orthogonalLoop=1;jettySize=auto;html=1;" parent="1" source="sCM_ybp7lxL3_3aXqTB7-199" target="sCM_ybp7lxL3_3aXqTB7-197" edge="1">
          <mxGeometry relative="1" as="geometry">
            <Array as="points">
              <mxPoint x="606" y="776" />
              <mxPoint x="497" y="776" />
              <mxPoint x="497" y="839" />
            </Array>
          </mxGeometry>
        </mxCell>
        <mxCell id="sCM_ybp7lxL3_3aXqTB7-199" value="Типы Продуктов" style="swimlane;fontStyle=0;childLayout=stackLayout;horizontal=1;startSize=26;horizontalStack=0;resizeParent=1;resizeParentMax=0;resizeLast=0;collapsible=1;marginBottom=0;align=center;fontSize=14;" parent="1" vertex="1">
          <mxGeometry x="526" y="799" width="160" height="54" as="geometry" />
        </mxCell>
        <mxCell id="sCM_ybp7lxL3_3aXqTB7-201" value="Название" style="text;strokeColor=none;fillColor=none;spacingLeft=4;spacingRight=4;overflow=hidden;rotatable=0;points=[[0,0.5],[1,0.5]];portConstraint=eastwest;fontSize=12;whiteSpace=wrap;html=1;" parent="sCM_ybp7lxL3_3aXqTB7-199" vertex="1">
          <mxGeometry y="26" width="160" height="28" as="geometry" />
        </mxCell>
        <mxCell id="sCM_ybp7lxL3_3aXqTB7-268" style="edgeStyle=orthogonalEdgeStyle;rounded=0;orthogonalLoop=1;jettySize=auto;html=1;" parent="1" source="sCM_ybp7lxL3_3aXqTB7-203" target="sCM_ybp7lxL3_3aXqTB7-183" edge="1">
          <mxGeometry relative="1" as="geometry">
            <Array as="points">
              <mxPoint x="393" y="337" />
              <mxPoint x="489" y="337" />
              <mxPoint x="489" y="543" />
            </Array>
          </mxGeometry>
        </mxCell>
        <mxCell id="sCM_ybp7lxL3_3aXqTB7-203" value="Смарт - контракт" style="swimlane;fontStyle=0;childLayout=stackLayout;horizontal=1;startSize=26;horizontalStack=0;resizeParent=1;resizeParentMax=0;resizeLast=0;collapsible=1;marginBottom=0;align=center;fontSize=14;" parent="1" vertex="1">
          <mxGeometry x="313" y="365" width="160" height="199" as="geometry" />
        </mxCell>
        <mxCell id="sCM_ybp7lxL3_3aXqTB7-204" value="UID" style="text;strokeColor=none;fillColor=none;spacingLeft=4;spacingRight=4;overflow=hidden;rotatable=0;points=[[0,0.5],[1,0.5]];portConstraint=eastwest;fontSize=12;whiteSpace=wrap;html=1;" parent="sCM_ybp7lxL3_3aXqTB7-203" vertex="1">
          <mxGeometry y="26" width="160" height="27" as="geometry" />
        </mxCell>
        <mxCell id="sCM_ybp7lxL3_3aXqTB7-205" value="Ончейн - Адрес" style="text;strokeColor=none;fillColor=none;spacingLeft=4;spacingRight=4;overflow=hidden;rotatable=0;points=[[0,0.5],[1,0.5]];portConstraint=eastwest;fontSize=12;whiteSpace=wrap;html=1;" parent="sCM_ybp7lxL3_3aXqTB7-203" vertex="1">
          <mxGeometry y="53" width="160" height="31" as="geometry" />
        </mxCell>
        <mxCell id="sCM_ybp7lxL3_3aXqTB7-206" value="ABI" style="text;strokeColor=none;fillColor=none;spacingLeft=4;spacingRight=4;overflow=hidden;rotatable=0;points=[[0,0.5],[1,0.5]];portConstraint=eastwest;fontSize=12;whiteSpace=wrap;html=1;" parent="sCM_ybp7lxL3_3aXqTB7-203" vertex="1">
          <mxGeometry y="84" width="160" height="30" as="geometry" />
        </mxCell>
        <mxCell id="sCM_ybp7lxL3_3aXqTB7-207" value="Адрес Владельца" style="text;strokeColor=none;fillColor=none;spacingLeft=4;spacingRight=4;overflow=hidden;rotatable=0;points=[[0,0.5],[1,0.5]];portConstraint=eastwest;fontSize=12;whiteSpace=wrap;html=1;" parent="sCM_ybp7lxL3_3aXqTB7-203" vertex="1">
          <mxGeometry y="114" width="160" height="28" as="geometry" />
        </mxCell>
        <mxCell id="sCM_ybp7lxL3_3aXqTB7-208" value="Статус" style="text;strokeColor=none;fillColor=none;spacingLeft=4;spacingRight=4;overflow=hidden;rotatable=0;points=[[0,0.5],[1,0.5]];portConstraint=eastwest;fontSize=12;whiteSpace=wrap;html=1;" parent="sCM_ybp7lxL3_3aXqTB7-203" vertex="1">
          <mxGeometry y="142" width="160" height="28" as="geometry" />
        </mxCell>
        <mxCell id="sCM_ybp7lxL3_3aXqTB7-209" value="Дата создания" style="text;strokeColor=none;fillColor=none;spacingLeft=4;spacingRight=4;overflow=hidden;rotatable=0;points=[[0,0.5],[1,0.5]];portConstraint=eastwest;fontSize=12;whiteSpace=wrap;html=1;" parent="sCM_ybp7lxL3_3aXqTB7-203" vertex="1">
          <mxGeometry y="170" width="160" height="29" as="geometry" />
        </mxCell>
        <mxCell id="sCM_ybp7lxL3_3aXqTB7-210" value="Запросы" style="swimlane;fontStyle=0;childLayout=stackLayout;horizontal=1;startSize=26;horizontalStack=0;resizeParent=1;resizeParentMax=0;resizeLast=0;collapsible=1;marginBottom=0;align=center;fontSize=14;" parent="1" vertex="1">
          <mxGeometry x="773" y="30" width="160" height="198" as="geometry" />
        </mxCell>
        <mxCell id="sCM_ybp7lxL3_3aXqTB7-212" value="Дата создания" style="text;strokeColor=none;fillColor=none;spacingLeft=4;spacingRight=4;overflow=hidden;rotatable=0;points=[[0,0.5],[1,0.5]];portConstraint=eastwest;fontSize=12;whiteSpace=wrap;html=1;" parent="sCM_ybp7lxL3_3aXqTB7-210" vertex="1">
          <mxGeometry y="26" width="160" height="44" as="geometry" />
        </mxCell>
        <mxCell id="sCM_ybp7lxL3_3aXqTB7-213" value="Описание" style="text;strokeColor=none;fillColor=none;spacingLeft=4;spacingRight=4;overflow=hidden;rotatable=0;points=[[0,0.5],[1,0.5]];portConstraint=eastwest;fontSize=12;whiteSpace=wrap;html=1;" parent="sCM_ybp7lxL3_3aXqTB7-210" vertex="1">
          <mxGeometry y="70" width="160" height="40" as="geometry" />
        </mxCell>
        <mxCell id="sCM_ybp7lxL3_3aXqTB7-214" value="Название" style="text;strokeColor=none;fillColor=none;spacingLeft=4;spacingRight=4;overflow=hidden;rotatable=0;points=[[0,0.5],[1,0.5]];portConstraint=eastwest;fontSize=12;whiteSpace=wrap;html=1;" parent="sCM_ybp7lxL3_3aXqTB7-210" vertex="1">
          <mxGeometry y="110" width="160" height="40" as="geometry" />
        </mxCell>
        <mxCell id="sCM_ybp7lxL3_3aXqTB7-215" value="Адрес Электронной Почты " style="text;strokeColor=none;fillColor=none;spacingLeft=4;spacingRight=4;overflow=hidden;rotatable=0;points=[[0,0.5],[1,0.5]];portConstraint=eastwest;fontSize=12;whiteSpace=wrap;html=1;" parent="sCM_ybp7lxL3_3aXqTB7-210" vertex="1">
          <mxGeometry y="150" width="160" height="48" as="geometry" />
        </mxCell>
        <mxCell id="sCM_ybp7lxL3_3aXqTB7-216" value="Логи" style="swimlane;fontStyle=0;childLayout=stackLayout;horizontal=1;startSize=26;horizontalStack=0;resizeParent=1;resizeParentMax=0;resizeLast=0;collapsible=1;marginBottom=0;align=center;fontSize=14;" parent="1" vertex="1">
          <mxGeometry x="105" y="370" width="160" height="159" as="geometry" />
        </mxCell>
        <mxCell id="sCM_ybp7lxL3_3aXqTB7-218" value="Тип взаимодействия" style="text;strokeColor=none;fillColor=none;spacingLeft=4;spacingRight=4;overflow=hidden;rotatable=0;points=[[0,0.5],[1,0.5]];portConstraint=eastwest;fontSize=12;whiteSpace=wrap;html=1;" parent="sCM_ybp7lxL3_3aXqTB7-216" vertex="1">
          <mxGeometry y="26" width="160" height="33" as="geometry" />
        </mxCell>
        <mxCell id="sCM_ybp7lxL3_3aXqTB7-219" value="Дата действия" style="text;strokeColor=none;fillColor=none;spacingLeft=4;spacingRight=4;overflow=hidden;rotatable=0;points=[[0,0.5],[1,0.5]];portConstraint=eastwest;fontSize=12;whiteSpace=wrap;html=1;" parent="sCM_ybp7lxL3_3aXqTB7-216" vertex="1">
          <mxGeometry y="59" width="160" height="30" as="geometry" />
        </mxCell>
        <mxCell id="sCM_ybp7lxL3_3aXqTB7-220" value="Тип лога" style="text;strokeColor=none;fillColor=none;spacingLeft=4;spacingRight=4;overflow=hidden;rotatable=0;points=[[0,0.5],[1,0.5]];portConstraint=eastwest;fontSize=12;whiteSpace=wrap;html=1;" parent="sCM_ybp7lxL3_3aXqTB7-216" vertex="1">
          <mxGeometry y="89" width="160" height="30" as="geometry" />
        </mxCell>
        <mxCell id="sCM_ybp7lxL3_3aXqTB7-221" value="Название" style="text;strokeColor=none;fillColor=none;spacingLeft=4;spacingRight=4;overflow=hidden;rotatable=0;points=[[0,0.5],[1,0.5]];portConstraint=eastwest;fontSize=12;whiteSpace=wrap;html=1;" parent="sCM_ybp7lxL3_3aXqTB7-216" vertex="1">
          <mxGeometry y="119" width="160" height="40" as="geometry" />
        </mxCell>
        <mxCell id="sCM_ybp7lxL3_3aXqTB7-222" value="Логи Пользователя" style="swimlane;fontStyle=0;childLayout=stackLayout;horizontal=1;startSize=26;horizontalStack=0;resizeParent=1;resizeParentMax=0;resizeLast=0;collapsible=1;marginBottom=0;align=center;fontSize=14;" parent="1" vertex="1">
          <mxGeometry x="100" y="30" width="160" height="121" as="geometry" />
        </mxCell>
        <mxCell id="sCM_ybp7lxL3_3aXqTB7-224" value="Пользователь" style="text;strokeColor=none;fillColor=none;spacingLeft=4;spacingRight=4;overflow=hidden;rotatable=0;points=[[0,0.5],[1,0.5]];portConstraint=eastwest;fontSize=12;whiteSpace=wrap;html=1;" parent="sCM_ybp7lxL3_3aXqTB7-222" vertex="1">
          <mxGeometry y="26" width="160" height="35" as="geometry" />
        </mxCell>
        <mxCell id="sCM_ybp7lxL3_3aXqTB7-225" value="Лог" style="text;strokeColor=none;fillColor=none;spacingLeft=4;spacingRight=4;overflow=hidden;rotatable=0;points=[[0,0.5],[1,0.5]];portConstraint=eastwest;fontSize=12;whiteSpace=wrap;html=1;" parent="sCM_ybp7lxL3_3aXqTB7-222" vertex="1">
          <mxGeometry y="61" width="160" height="30" as="geometry" />
        </mxCell>
        <mxCell id="sCM_ybp7lxL3_3aXqTB7-226" value="UID" style="text;strokeColor=none;fillColor=none;spacingLeft=4;spacingRight=4;overflow=hidden;rotatable=0;points=[[0,0.5],[1,0.5]];portConstraint=eastwest;fontSize=12;whiteSpace=wrap;html=1;" parent="sCM_ybp7lxL3_3aXqTB7-222" vertex="1">
          <mxGeometry y="91" width="160" height="30" as="geometry" />
        </mxCell>
        <mxCell id="sCM_ybp7lxL3_3aXqTB7-229" value="Запросы Пользователя" style="swimlane;fontStyle=0;childLayout=stackLayout;horizontal=1;startSize=26;horizontalStack=0;resizeParent=1;resizeParentMax=0;resizeLast=0;collapsible=1;marginBottom=0;align=center;fontSize=14;" parent="1" vertex="1">
          <mxGeometry x="523" y="36" width="186" height="115" as="geometry" />
        </mxCell>
        <mxCell id="sCM_ybp7lxL3_3aXqTB7-231" value="Пользователь" style="text;strokeColor=none;fillColor=none;spacingLeft=4;spacingRight=4;overflow=hidden;rotatable=0;points=[[0,0.5],[1,0.5]];portConstraint=eastwest;fontSize=12;whiteSpace=wrap;html=1;" parent="sCM_ybp7lxL3_3aXqTB7-229" vertex="1">
          <mxGeometry y="26" width="186" height="29" as="geometry" />
        </mxCell>
        <mxCell id="sCM_ybp7lxL3_3aXqTB7-232" value="Запрос" style="text;strokeColor=none;fillColor=none;spacingLeft=4;spacingRight=4;overflow=hidden;rotatable=0;points=[[0,0.5],[1,0.5]];portConstraint=eastwest;fontSize=12;whiteSpace=wrap;html=1;" parent="sCM_ybp7lxL3_3aXqTB7-229" vertex="1">
          <mxGeometry y="55" width="186" height="30" as="geometry" />
        </mxCell>
        <mxCell id="sCM_ybp7lxL3_3aXqTB7-233" value="UID" style="text;strokeColor=none;fillColor=none;spacingLeft=4;spacingRight=4;overflow=hidden;rotatable=0;points=[[0,0.5],[1,0.5]];portConstraint=eastwest;fontSize=12;whiteSpace=wrap;html=1;" parent="sCM_ybp7lxL3_3aXqTB7-229" vertex="1">
          <mxGeometry y="85" width="186" height="30" as="geometry" />
        </mxCell>
        <mxCell id="sCM_ybp7lxL3_3aXqTB7-236" value="Транзакции Пользователя" style="swimlane;fontStyle=0;childLayout=stackLayout;horizontal=1;startSize=26;horizontalStack=0;resizeParent=1;resizeParentMax=0;resizeLast=0;collapsible=1;marginBottom=0;align=center;fontSize=14;" parent="1" vertex="1">
          <mxGeometry x="510" y="230" width="205" height="140" as="geometry" />
        </mxCell>
        <mxCell id="sCM_ybp7lxL3_3aXqTB7-237" value="Пользователь" style="text;strokeColor=none;fillColor=none;spacingLeft=4;spacingRight=4;overflow=hidden;rotatable=0;points=[[0,0.5],[1,0.5]];portConstraint=eastwest;fontSize=12;whiteSpace=wrap;html=1;" parent="sCM_ybp7lxL3_3aXqTB7-236" vertex="1">
          <mxGeometry y="26" width="205" height="44" as="geometry" />
        </mxCell>
        <mxCell id="sCM_ybp7lxL3_3aXqTB7-238" value="Транзакция" style="text;strokeColor=none;fillColor=none;spacingLeft=4;spacingRight=4;overflow=hidden;rotatable=0;points=[[0,0.5],[1,0.5]];portConstraint=eastwest;fontSize=12;whiteSpace=wrap;html=1;" parent="sCM_ybp7lxL3_3aXqTB7-236" vertex="1">
          <mxGeometry y="70" width="205" height="40" as="geometry" />
        </mxCell>
        <mxCell id="sCM_ybp7lxL3_3aXqTB7-239" value="UID" style="text;strokeColor=none;fillColor=none;spacingLeft=4;spacingRight=4;overflow=hidden;rotatable=0;points=[[0,0.5],[1,0.5]];portConstraint=eastwest;fontSize=12;whiteSpace=wrap;html=1;" parent="sCM_ybp7lxL3_3aXqTB7-236" vertex="1">
          <mxGeometry y="110" width="205" height="30" as="geometry" />
        </mxCell>
        <mxCell id="sCM_ybp7lxL3_3aXqTB7-243" style="edgeStyle=orthogonalEdgeStyle;rounded=0;orthogonalLoop=1;jettySize=auto;html=1;entryX=0.5;entryY=0;entryDx=0;entryDy=0;" parent="1" source="sCM_ybp7lxL3_3aXqTB7-224" target="sCM_ybp7lxL3_3aXqTB7-169" edge="1">
          <mxGeometry relative="1" as="geometry" />
        </mxCell>
        <mxCell id="sCM_ybp7lxL3_3aXqTB7-248" style="edgeStyle=orthogonalEdgeStyle;rounded=0;orthogonalLoop=1;jettySize=auto;html=1;entryX=0.5;entryY=0;entryDx=0;entryDy=0;" parent="1" source="sCM_ybp7lxL3_3aXqTB7-231" target="sCM_ybp7lxL3_3aXqTB7-169" edge="1">
          <mxGeometry relative="1" as="geometry">
            <Array as="points">
              <mxPoint x="492" y="78" />
              <mxPoint x="492" y="10" />
              <mxPoint x="380" y="10" />
            </Array>
          </mxGeometry>
        </mxCell>
        <mxCell id="sCM_ybp7lxL3_3aXqTB7-251" style="edgeStyle=orthogonalEdgeStyle;rounded=0;orthogonalLoop=1;jettySize=auto;html=1;entryX=0.5;entryY=0;entryDx=0;entryDy=0;" parent="1" source="sCM_ybp7lxL3_3aXqTB7-232" target="sCM_ybp7lxL3_3aXqTB7-210" edge="1">
          <mxGeometry relative="1" as="geometry" />
        </mxCell>
        <mxCell id="sCM_ybp7lxL3_3aXqTB7-255" style="edgeStyle=orthogonalEdgeStyle;rounded=0;orthogonalLoop=1;jettySize=auto;html=1;entryX=0.5;entryY=0;entryDx=0;entryDy=0;" parent="1" source="sCM_ybp7lxL3_3aXqTB7-237" target="sCM_ybp7lxL3_3aXqTB7-169" edge="1">
          <mxGeometry relative="1" as="geometry">
            <Array as="points">
              <mxPoint x="491" y="278" />
              <mxPoint x="491" y="10" />
              <mxPoint x="380" y="10" />
            </Array>
          </mxGeometry>
        </mxCell>
        <mxCell id="sCM_ybp7lxL3_3aXqTB7-256" style="edgeStyle=orthogonalEdgeStyle;rounded=0;orthogonalLoop=1;jettySize=auto;html=1;entryX=0.5;entryY=0;entryDx=0;entryDy=0;" parent="1" source="sCM_ybp7lxL3_3aXqTB7-238" target="sCM_ybp7lxL3_3aXqTB7-180" edge="1">
          <mxGeometry relative="1" as="geometry" />
        </mxCell>
        <mxCell id="sCM_ybp7lxL3_3aXqTB7-269" style="edgeStyle=orthogonalEdgeStyle;rounded=0;orthogonalLoop=1;jettySize=auto;html=1;entryX=0.5;entryY=0;entryDx=0;entryDy=0;" parent="1" source="sCM_ybp7lxL3_3aXqTB7-225" target="sCM_ybp7lxL3_3aXqTB7-216" edge="1">
          <mxGeometry relative="1" as="geometry">
            <Array as="points">
              <mxPoint x="41" y="106" />
              <mxPoint x="41" y="354" />
              <mxPoint x="185" y="354" />
            </Array>
          </mxGeometry>
        </mxCell>
        <mxCell id="JcELHo9t9HgocP2iokCu-1" style="edgeStyle=orthogonalEdgeStyle;rounded=0;orthogonalLoop=1;jettySize=auto;html=1;" parent="1" source="JcELHo9t9HgocP2iokCu-4" target="JcELHo9t9HgocP2iokCu-63" edge="1">
          <mxGeometry relative="1" as="geometry">
            <Array as="points">
              <mxPoint x="1472" y="48" />
              <mxPoint x="1584" y="48" />
              <mxPoint x="1584" y="316" />
            </Array>
          </mxGeometry>
        </mxCell>
        <mxCell id="JcELHo9t9HgocP2iokCu-2" style="edgeStyle=orthogonalEdgeStyle;rounded=0;orthogonalLoop=1;jettySize=auto;html=1;dashed=1;dashPattern=12 12;" parent="1" source="JcELHo9t9HgocP2iokCu-4" target="JcELHo9t9HgocP2iokCu-54" edge="1">
          <mxGeometry relative="1" as="geometry">
            <Array as="points">
              <mxPoint x="1472" y="48" />
              <mxPoint x="1691" y="48" />
              <mxPoint x="1691" y="224" />
            </Array>
          </mxGeometry>
        </mxCell>
        <mxCell id="JcELHo9t9HgocP2iokCu-3" style="edgeStyle=orthogonalEdgeStyle;rounded=0;orthogonalLoop=1;jettySize=auto;html=1;entryX=1;entryY=0.5;entryDx=0;entryDy=0;dashed=1;dashPattern=12 12;" parent="1" source="JcELHo9t9HgocP2iokCu-4" target="JcELHo9t9HgocP2iokCu-61" edge="1">
          <mxGeometry relative="1" as="geometry">
            <Array as="points">
              <mxPoint x="1472" y="47" />
              <mxPoint x="1291" y="47" />
              <mxPoint x="1291" y="258" />
            </Array>
          </mxGeometry>
        </mxCell>
        <mxCell id="JcELHo9t9HgocP2iokCu-4" value="Пользователи" style="swimlane;fontStyle=0;childLayout=stackLayout;horizontal=1;startSize=26;horizontalStack=0;resizeParent=1;resizeParentMax=0;resizeLast=0;collapsible=1;marginBottom=0;align=center;fontSize=14;" parent="1" vertex="1">
          <mxGeometry x="1392" y="68" width="160" height="230" as="geometry" />
        </mxCell>
        <mxCell id="JcELHo9t9HgocP2iokCu-5" value="id (PK)" style="text;strokeColor=default;fillColor=default;spacingLeft=4;spacingRight=4;overflow=hidden;rotatable=0;points=[[0,0.5],[1,0.5]];portConstraint=eastwest;fontSize=12;whiteSpace=wrap;html=1;" parent="JcELHo9t9HgocP2iokCu-4" vertex="1">
          <mxGeometry y="26" width="160" height="33" as="geometry" />
        </mxCell>
        <mxCell id="JcELHo9t9HgocP2iokCu-6" value="UID (АК 1.1)" style="text;strokeColor=none;fillColor=none;spacingLeft=4;spacingRight=4;overflow=hidden;rotatable=0;points=[[0,0.5],[1,0.5]];portConstraint=eastwest;fontSize=12;whiteSpace=wrap;html=1;" parent="JcELHo9t9HgocP2iokCu-4" vertex="1">
          <mxGeometry y="59" width="160" height="30" as="geometry" />
        </mxCell>
        <mxCell id="JcELHo9t9HgocP2iokCu-7" value="Адрес кошелька (АК 1.2)&lt;div&gt;&lt;br&gt;&lt;/div&gt;" style="text;strokeColor=none;fillColor=none;spacingLeft=4;spacingRight=4;overflow=hidden;rotatable=0;points=[[0,0.5],[1,0.5]];portConstraint=eastwest;fontSize=12;whiteSpace=wrap;html=1;" parent="JcELHo9t9HgocP2iokCu-4" vertex="1">
          <mxGeometry y="89" width="160" height="32" as="geometry" />
        </mxCell>
        <mxCell id="JcELHo9t9HgocP2iokCu-8" value="Логин" style="text;strokeColor=none;fillColor=none;spacingLeft=4;spacingRight=4;overflow=hidden;rotatable=0;points=[[0,0.5],[1,0.5]];portConstraint=eastwest;fontSize=12;whiteSpace=wrap;html=1;" parent="JcELHo9t9HgocP2iokCu-4" vertex="1">
          <mxGeometry y="121" width="160" height="34" as="geometry" />
        </mxCell>
        <mxCell id="JcELHo9t9HgocP2iokCu-9" value="Пароль" style="text;strokeColor=none;fillColor=none;spacingLeft=4;spacingRight=4;overflow=hidden;rotatable=0;points=[[0,0.5],[1,0.5]];portConstraint=eastwest;fontSize=12;whiteSpace=wrap;html=1;" parent="JcELHo9t9HgocP2iokCu-4" vertex="1">
          <mxGeometry y="155" width="160" height="36" as="geometry" />
        </mxCell>
        <mxCell id="JcELHo9t9HgocP2iokCu-10" value="Роль" style="text;strokeColor=none;fillColor=none;spacingLeft=4;spacingRight=4;overflow=hidden;rotatable=0;points=[[0,0.5],[1,0.5]];portConstraint=eastwest;fontSize=12;whiteSpace=wrap;html=1;" parent="JcELHo9t9HgocP2iokCu-4" vertex="1">
          <mxGeometry y="191" width="160" height="39" as="geometry" />
        </mxCell>
        <mxCell id="JcELHo9t9HgocP2iokCu-11" style="edgeStyle=orthogonalEdgeStyle;rounded=0;orthogonalLoop=1;jettySize=auto;html=1;dashed=1;dashPattern=12 12;" parent="1" source="JcELHo9t9HgocP2iokCu-12" target="JcELHo9t9HgocP2iokCu-10" edge="1">
          <mxGeometry relative="1" as="geometry">
            <Array as="points">
              <mxPoint x="1251" y="283" />
            </Array>
          </mxGeometry>
        </mxCell>
        <mxCell id="JcELHo9t9HgocP2iokCu-12" value="Роли" style="swimlane;fontStyle=0;childLayout=stackLayout;horizontal=1;startSize=26;horizontalStack=0;resizeParent=1;resizeParentMax=0;resizeLast=0;collapsible=1;marginBottom=0;align=center;fontSize=14;" parent="1" vertex="1">
          <mxGeometry x="1171" y="333" width="160" height="88" as="geometry" />
        </mxCell>
        <mxCell id="JcELHo9t9HgocP2iokCu-13" value="id (PK)" style="text;strokeColor=default;fillColor=default;spacingLeft=4;spacingRight=4;overflow=hidden;rotatable=0;points=[[0,0.5],[1,0.5]];portConstraint=eastwest;fontSize=12;whiteSpace=wrap;html=1;" parent="JcELHo9t9HgocP2iokCu-12" vertex="1">
          <mxGeometry y="26" width="160" height="33" as="geometry" />
        </mxCell>
        <mxCell id="JcELHo9t9HgocP2iokCu-14" value="Название (АК 1.1)&lt;div&gt;&lt;br&gt;&lt;/div&gt;" style="text;strokeColor=none;fillColor=none;spacingLeft=4;spacingRight=4;overflow=hidden;rotatable=0;points=[[0,0.5],[1,0.5]];portConstraint=eastwest;fontSize=12;whiteSpace=wrap;html=1;" parent="JcELHo9t9HgocP2iokCu-12" vertex="1">
          <mxGeometry y="59" width="160" height="29" as="geometry" />
        </mxCell>
        <mxCell id="JcELHo9t9HgocP2iokCu-15" style="edgeStyle=orthogonalEdgeStyle;rounded=0;orthogonalLoop=1;jettySize=auto;html=1;" parent="1" source="JcELHo9t9HgocP2iokCu-16" target="JcELHo9t9HgocP2iokCu-64" edge="1">
          <mxGeometry relative="1" as="geometry" />
        </mxCell>
        <mxCell id="JcELHo9t9HgocP2iokCu-16" value="Транзакции" style="swimlane;fontStyle=0;childLayout=stackLayout;horizontal=1;startSize=26;horizontalStack=0;resizeParent=1;resizeParentMax=0;resizeLast=0;collapsible=1;marginBottom=0;align=center;fontSize=14;" parent="1" vertex="1">
          <mxGeometry x="1628" y="491" width="160" height="304" as="geometry" />
        </mxCell>
        <mxCell id="JcELHo9t9HgocP2iokCu-17" value="id (PK)" style="text;strokeColor=none;fillColor=none;spacingLeft=4;spacingRight=4;overflow=hidden;rotatable=0;points=[[0,0.5],[1,0.5]];portConstraint=eastwest;fontSize=12;whiteSpace=wrap;html=1;" parent="JcELHo9t9HgocP2iokCu-16" vertex="1">
          <mxGeometry y="26" width="160" height="34" as="geometry" />
        </mxCell>
        <mxCell id="JcELHo9t9HgocP2iokCu-18" value="Хэш транзакции (АК 1.1)&lt;div&gt;&lt;br&gt;&lt;/div&gt;" style="text;strokeColor=none;fillColor=none;spacingLeft=4;spacingRight=4;overflow=hidden;rotatable=0;points=[[0,0.5],[1,0.5]];portConstraint=eastwest;fontSize=12;whiteSpace=wrap;html=1;" parent="JcELHo9t9HgocP2iokCu-16" vertex="1">
          <mxGeometry y="60" width="160" height="34" as="geometry" />
        </mxCell>
        <mxCell id="JcELHo9t9HgocP2iokCu-19" value="Смарт контракт" style="text;strokeColor=none;fillColor=none;spacingLeft=4;spacingRight=4;overflow=hidden;rotatable=0;points=[[0,0.5],[1,0.5]];portConstraint=eastwest;fontSize=12;whiteSpace=wrap;html=1;" parent="JcELHo9t9HgocP2iokCu-16" vertex="1">
          <mxGeometry y="94" width="160" height="40" as="geometry" />
        </mxCell>
        <mxCell id="JcELHo9t9HgocP2iokCu-20" value="Тип транзакции" style="text;strokeColor=none;fillColor=none;spacingLeft=4;spacingRight=4;overflow=hidden;rotatable=0;points=[[0,0.5],[1,0.5]];portConstraint=eastwest;fontSize=12;whiteSpace=wrap;html=1;" parent="JcELHo9t9HgocP2iokCu-16" vertex="1">
          <mxGeometry y="134" width="160" height="34" as="geometry" />
        </mxCell>
        <mxCell id="JcELHo9t9HgocP2iokCu-21" value="Продукт" style="text;strokeColor=none;fillColor=none;spacingLeft=4;spacingRight=4;overflow=hidden;rotatable=0;points=[[0,0.5],[1,0.5]];portConstraint=eastwest;fontSize=12;whiteSpace=wrap;html=1;" parent="JcELHo9t9HgocP2iokCu-16" vertex="1">
          <mxGeometry y="168" width="160" height="36" as="geometry" />
        </mxCell>
        <mxCell id="JcELHo9t9HgocP2iokCu-22" value="Дата транзакции" style="text;strokeColor=none;fillColor=none;spacingLeft=4;spacingRight=4;overflow=hidden;rotatable=0;points=[[0,0.5],[1,0.5]];portConstraint=eastwest;fontSize=12;whiteSpace=wrap;html=1;" parent="JcELHo9t9HgocP2iokCu-16" vertex="1">
          <mxGeometry y="204" width="160" height="35" as="geometry" />
        </mxCell>
        <mxCell id="JcELHo9t9HgocP2iokCu-23" value="Адрес владельца" style="text;strokeColor=none;fillColor=none;spacingLeft=4;spacingRight=4;overflow=hidden;rotatable=0;points=[[0,0.5],[1,0.5]];portConstraint=eastwest;fontSize=12;whiteSpace=wrap;html=1;" parent="JcELHo9t9HgocP2iokCu-16" vertex="1">
          <mxGeometry y="239" width="160" height="31" as="geometry" />
        </mxCell>
        <mxCell id="JcELHo9t9HgocP2iokCu-24" value="Адрес получателя" style="text;strokeColor=none;fillColor=none;spacingLeft=4;spacingRight=4;overflow=hidden;rotatable=0;points=[[0,0.5],[1,0.5]];portConstraint=eastwest;fontSize=12;whiteSpace=wrap;html=1;" parent="JcELHo9t9HgocP2iokCu-16" vertex="1">
          <mxGeometry y="270" width="160" height="34" as="geometry" />
        </mxCell>
        <mxCell id="JcELHo9t9HgocP2iokCu-25" style="edgeStyle=orthogonalEdgeStyle;rounded=0;orthogonalLoop=1;jettySize=auto;html=1;entryX=0;entryY=0.5;entryDx=0;entryDy=0;" parent="1" source="JcELHo9t9HgocP2iokCu-26" target="JcELHo9t9HgocP2iokCu-21" edge="1">
          <mxGeometry relative="1" as="geometry">
            <Array as="points">
              <mxPoint x="1478" y="677" />
            </Array>
          </mxGeometry>
        </mxCell>
        <mxCell id="JcELHo9t9HgocP2iokCu-26" value="Продукты" style="swimlane;fontStyle=0;childLayout=stackLayout;horizontal=1;startSize=26;horizontalStack=0;resizeParent=1;resizeParentMax=0;resizeLast=0;collapsible=1;marginBottom=0;align=center;fontSize=14;" parent="1" vertex="1">
          <mxGeometry x="1400" y="705" width="160" height="261" as="geometry" />
        </mxCell>
        <mxCell id="JcELHo9t9HgocP2iokCu-27" value="id (PK)" style="text;strokeColor=default;fillColor=default;spacingLeft=4;spacingRight=4;overflow=hidden;rotatable=0;points=[[0,0.5],[1,0.5]];portConstraint=eastwest;fontSize=12;whiteSpace=wrap;html=1;" parent="JcELHo9t9HgocP2iokCu-26" vertex="1">
          <mxGeometry y="26" width="160" height="33" as="geometry" />
        </mxCell>
        <mxCell id="JcELHo9t9HgocP2iokCu-28" value="UID (АК 1.1)&lt;div&gt;&lt;br&gt;&lt;/div&gt;" style="text;strokeColor=none;fillColor=none;spacingLeft=4;spacingRight=4;overflow=hidden;rotatable=0;points=[[0,0.5],[1,0.5]];portConstraint=eastwest;fontSize=12;whiteSpace=wrap;html=1;" parent="JcELHo9t9HgocP2iokCu-26" vertex="1">
          <mxGeometry y="59" width="160" height="30" as="geometry" />
        </mxCell>
        <mxCell id="JcELHo9t9HgocP2iokCu-29" value="Ончейн - Адрес (АК 1.2)&lt;div&gt;&lt;br&gt;&lt;/div&gt;" style="text;strokeColor=none;fillColor=none;spacingLeft=4;spacingRight=4;overflow=hidden;rotatable=0;points=[[0,0.5],[1,0.5]];portConstraint=eastwest;fontSize=12;whiteSpace=wrap;html=1;" parent="JcELHo9t9HgocP2iokCu-26" vertex="1">
          <mxGeometry y="89" width="160" height="30" as="geometry" />
        </mxCell>
        <mxCell id="JcELHo9t9HgocP2iokCu-30" value="Название" style="text;strokeColor=none;fillColor=none;spacingLeft=4;spacingRight=4;overflow=hidden;rotatable=0;points=[[0,0.5],[1,0.5]];portConstraint=eastwest;fontSize=12;whiteSpace=wrap;html=1;" parent="JcELHo9t9HgocP2iokCu-26" vertex="1">
          <mxGeometry y="119" width="160" height="30" as="geometry" />
        </mxCell>
        <mxCell id="JcELHo9t9HgocP2iokCu-31" value="Описание" style="text;strokeColor=none;fillColor=none;spacingLeft=4;spacingRight=4;overflow=hidden;rotatable=0;points=[[0,0.5],[1,0.5]];portConstraint=eastwest;fontSize=12;whiteSpace=wrap;html=1;" parent="JcELHo9t9HgocP2iokCu-26" vertex="1">
          <mxGeometry y="149" width="160" height="27" as="geometry" />
        </mxCell>
        <mxCell id="JcELHo9t9HgocP2iokCu-32" value="Адрес владельца" style="text;strokeColor=none;fillColor=none;spacingLeft=4;spacingRight=4;overflow=hidden;rotatable=0;points=[[0,0.5],[1,0.5]];portConstraint=eastwest;fontSize=12;whiteSpace=wrap;html=1;" parent="JcELHo9t9HgocP2iokCu-26" vertex="1">
          <mxGeometry y="176" width="160" height="28" as="geometry" />
        </mxCell>
        <mxCell id="JcELHo9t9HgocP2iokCu-33" value="Метадата" style="text;strokeColor=none;fillColor=none;spacingLeft=4;spacingRight=4;overflow=hidden;rotatable=0;points=[[0,0.5],[1,0.5]];portConstraint=eastwest;fontSize=12;whiteSpace=wrap;html=1;" parent="JcELHo9t9HgocP2iokCu-26" vertex="1">
          <mxGeometry y="204" width="160" height="28" as="geometry" />
        </mxCell>
        <mxCell id="JcELHo9t9HgocP2iokCu-34" value="Тип продукта" style="text;strokeColor=none;fillColor=none;spacingLeft=4;spacingRight=4;overflow=hidden;rotatable=0;points=[[0,0.5],[1,0.5]];portConstraint=eastwest;fontSize=12;whiteSpace=wrap;html=1;" parent="JcELHo9t9HgocP2iokCu-26" vertex="1">
          <mxGeometry y="232" width="160" height="29" as="geometry" />
        </mxCell>
        <mxCell id="JcELHo9t9HgocP2iokCu-35" style="edgeStyle=orthogonalEdgeStyle;rounded=0;orthogonalLoop=1;jettySize=auto;html=1;dashed=1;dashPattern=12 12;" parent="1" source="JcELHo9t9HgocP2iokCu-36" target="JcELHo9t9HgocP2iokCu-34" edge="1">
          <mxGeometry relative="1" as="geometry">
            <Array as="points">
              <mxPoint x="1691" y="951" />
            </Array>
          </mxGeometry>
        </mxCell>
        <mxCell id="JcELHo9t9HgocP2iokCu-36" value="Типы Продуктов" style="swimlane;fontStyle=0;childLayout=stackLayout;horizontal=1;startSize=26;horizontalStack=0;resizeParent=1;resizeParentMax=0;resizeLast=0;collapsible=1;marginBottom=0;align=center;fontSize=14;rounded=0;" parent="1" vertex="1">
          <mxGeometry x="1611" y="963" width="160" height="87" as="geometry" />
        </mxCell>
        <mxCell id="JcELHo9t9HgocP2iokCu-37" value="id (PK)" style="text;strokeColor=default;fillColor=default;spacingLeft=4;spacingRight=4;overflow=hidden;rotatable=0;points=[[0,0.5],[1,0.5]];portConstraint=eastwest;fontSize=12;whiteSpace=wrap;html=1;" parent="JcELHo9t9HgocP2iokCu-36" vertex="1">
          <mxGeometry y="26" width="160" height="33" as="geometry" />
        </mxCell>
        <mxCell id="JcELHo9t9HgocP2iokCu-38" value="Название (АК 1.1)" style="text;strokeColor=none;fillColor=none;spacingLeft=4;spacingRight=4;overflow=hidden;rotatable=0;points=[[0,0.5],[1,0.5]];portConstraint=eastwest;fontSize=12;whiteSpace=wrap;html=1;" parent="JcELHo9t9HgocP2iokCu-36" vertex="1">
          <mxGeometry y="59" width="160" height="28" as="geometry" />
        </mxCell>
        <mxCell id="JcELHo9t9HgocP2iokCu-39" style="edgeStyle=orthogonalEdgeStyle;rounded=0;orthogonalLoop=1;jettySize=auto;html=1;" parent="1" source="JcELHo9t9HgocP2iokCu-40" target="JcELHo9t9HgocP2iokCu-19" edge="1">
          <mxGeometry relative="1" as="geometry">
            <Array as="points">
              <mxPoint x="1362" y="415" />
              <mxPoint x="1501" y="415" />
              <mxPoint x="1501" y="605" />
            </Array>
          </mxGeometry>
        </mxCell>
        <mxCell id="JcELHo9t9HgocP2iokCu-40" value="Смарт - контракт" style="swimlane;fontStyle=0;childLayout=stackLayout;horizontal=1;startSize=26;horizontalStack=0;resizeParent=1;resizeParentMax=0;resizeLast=0;collapsible=1;marginBottom=0;align=center;fontSize=14;" parent="1" vertex="1">
          <mxGeometry x="1282" y="439" width="160" height="232" as="geometry" />
        </mxCell>
        <mxCell id="JcELHo9t9HgocP2iokCu-41" value="id (PK)" style="text;strokeColor=default;fillColor=default;spacingLeft=4;spacingRight=4;overflow=hidden;rotatable=0;points=[[0,0.5],[1,0.5]];portConstraint=eastwest;fontSize=12;whiteSpace=wrap;html=1;" parent="JcELHo9t9HgocP2iokCu-40" vertex="1">
          <mxGeometry y="26" width="160" height="33" as="geometry" />
        </mxCell>
        <mxCell id="JcELHo9t9HgocP2iokCu-42" value="UID (АК 1.1)" style="text;strokeColor=none;fillColor=none;spacingLeft=4;spacingRight=4;overflow=hidden;rotatable=0;points=[[0,0.5],[1,0.5]];portConstraint=eastwest;fontSize=12;whiteSpace=wrap;html=1;" parent="JcELHo9t9HgocP2iokCu-40" vertex="1">
          <mxGeometry y="59" width="160" height="27" as="geometry" />
        </mxCell>
        <mxCell id="JcELHo9t9HgocP2iokCu-43" value="Ончейн - Адрес (АК 1.2)" style="text;strokeColor=none;fillColor=none;spacingLeft=4;spacingRight=4;overflow=hidden;rotatable=0;points=[[0,0.5],[1,0.5]];portConstraint=eastwest;fontSize=12;whiteSpace=wrap;html=1;" parent="JcELHo9t9HgocP2iokCu-40" vertex="1">
          <mxGeometry y="86" width="160" height="31" as="geometry" />
        </mxCell>
        <mxCell id="JcELHo9t9HgocP2iokCu-44" value="ABI" style="text;strokeColor=none;fillColor=none;spacingLeft=4;spacingRight=4;overflow=hidden;rotatable=0;points=[[0,0.5],[1,0.5]];portConstraint=eastwest;fontSize=12;whiteSpace=wrap;html=1;" parent="JcELHo9t9HgocP2iokCu-40" vertex="1">
          <mxGeometry y="117" width="160" height="30" as="geometry" />
        </mxCell>
        <mxCell id="JcELHo9t9HgocP2iokCu-45" value="Адрес Владельца" style="text;strokeColor=none;fillColor=none;spacingLeft=4;spacingRight=4;overflow=hidden;rotatable=0;points=[[0,0.5],[1,0.5]];portConstraint=eastwest;fontSize=12;whiteSpace=wrap;html=1;" parent="JcELHo9t9HgocP2iokCu-40" vertex="1">
          <mxGeometry y="147" width="160" height="28" as="geometry" />
        </mxCell>
        <mxCell id="JcELHo9t9HgocP2iokCu-46" value="Статус" style="text;strokeColor=none;fillColor=none;spacingLeft=4;spacingRight=4;overflow=hidden;rotatable=0;points=[[0,0.5],[1,0.5]];portConstraint=eastwest;fontSize=12;whiteSpace=wrap;html=1;" parent="JcELHo9t9HgocP2iokCu-40" vertex="1">
          <mxGeometry y="175" width="160" height="28" as="geometry" />
        </mxCell>
        <mxCell id="JcELHo9t9HgocP2iokCu-47" value="Дата создания" style="text;strokeColor=none;fillColor=none;spacingLeft=4;spacingRight=4;overflow=hidden;rotatable=0;points=[[0,0.5],[1,0.5]];portConstraint=eastwest;fontSize=12;whiteSpace=wrap;html=1;" parent="JcELHo9t9HgocP2iokCu-40" vertex="1">
          <mxGeometry y="203" width="160" height="29" as="geometry" />
        </mxCell>
        <mxCell id="JcELHo9t9HgocP2iokCu-48" value="Запросы" style="swimlane;fontStyle=0;childLayout=stackLayout;horizontal=1;startSize=26;horizontalStack=0;resizeParent=1;resizeParentMax=0;resizeLast=0;collapsible=1;marginBottom=0;align=center;fontSize=14;" parent="1" vertex="1">
          <mxGeometry x="1751" width="160" height="242" as="geometry" />
        </mxCell>
        <mxCell id="JcELHo9t9HgocP2iokCu-49" value="id (PK)" style="text;strokeColor=default;fillColor=default;spacingLeft=4;spacingRight=4;overflow=hidden;rotatable=0;points=[[0,0.5],[1,0.5]];portConstraint=eastwest;fontSize=12;whiteSpace=wrap;html=1;" parent="JcELHo9t9HgocP2iokCu-48" vertex="1">
          <mxGeometry y="26" width="160" height="33" as="geometry" />
        </mxCell>
        <mxCell id="JcELHo9t9HgocP2iokCu-50" value="Дата создания&amp;nbsp;" style="text;strokeColor=none;fillColor=none;spacingLeft=4;spacingRight=4;overflow=hidden;rotatable=0;points=[[0,0.5],[1,0.5]];portConstraint=eastwest;fontSize=12;whiteSpace=wrap;html=1;" parent="JcELHo9t9HgocP2iokCu-48" vertex="1">
          <mxGeometry y="59" width="160" height="31" as="geometry" />
        </mxCell>
        <mxCell id="JcELHo9t9HgocP2iokCu-51" value="Описание" style="text;strokeColor=none;fillColor=none;spacingLeft=4;spacingRight=4;overflow=hidden;rotatable=0;points=[[0,0.5],[1,0.5]];portConstraint=eastwest;fontSize=12;whiteSpace=wrap;html=1;" parent="JcELHo9t9HgocP2iokCu-48" vertex="1">
          <mxGeometry y="90" width="160" height="40" as="geometry" />
        </mxCell>
        <mxCell id="JcELHo9t9HgocP2iokCu-52" value="Название" style="text;strokeColor=none;fillColor=none;spacingLeft=4;spacingRight=4;overflow=hidden;rotatable=0;points=[[0,0.5],[1,0.5]];portConstraint=eastwest;fontSize=12;whiteSpace=wrap;html=1;" parent="JcELHo9t9HgocP2iokCu-48" vertex="1">
          <mxGeometry y="130" width="160" height="40" as="geometry" />
        </mxCell>
        <mxCell id="JcELHo9t9HgocP2iokCu-53" value="Адрес Электронной Почты " style="text;strokeColor=none;fillColor=none;spacingLeft=4;spacingRight=4;overflow=hidden;rotatable=0;points=[[0,0.5],[1,0.5]];portConstraint=eastwest;fontSize=12;whiteSpace=wrap;html=1;" parent="JcELHo9t9HgocP2iokCu-48" vertex="1">
          <mxGeometry y="170" width="160" height="35" as="geometry" />
        </mxCell>
        <mxCell id="JcELHo9t9HgocP2iokCu-54" value="Пользователь" style="text;strokeColor=none;fillColor=none;spacingLeft=4;spacingRight=4;overflow=hidden;rotatable=0;points=[[0,0.5],[1,0.5]];portConstraint=eastwest;fontSize=12;whiteSpace=wrap;html=1;" parent="JcELHo9t9HgocP2iokCu-48" vertex="1">
          <mxGeometry y="205" width="160" height="37" as="geometry" />
        </mxCell>
        <mxCell id="JcELHo9t9HgocP2iokCu-55" value="Логи" style="swimlane;fontStyle=0;childLayout=stackLayout;horizontal=1;startSize=26;horizontalStack=0;resizeParent=1;resizeParentMax=0;resizeLast=0;collapsible=1;marginBottom=0;align=center;fontSize=14;swimlaneFillColor=default;rounded=0;swimlaneLine=1;" parent="1" vertex="1">
          <mxGeometry x="1065" y="51" width="160" height="223" as="geometry" />
        </mxCell>
        <mxCell id="JcELHo9t9HgocP2iokCu-56" value="id (PK)" style="text;strokeColor=default;fillColor=default;spacingLeft=4;spacingRight=4;overflow=hidden;rotatable=0;points=[[0,0.5],[1,0.5]];portConstraint=eastwest;fontSize=12;whiteSpace=wrap;html=1;" parent="JcELHo9t9HgocP2iokCu-55" vertex="1">
          <mxGeometry y="26" width="160" height="33" as="geometry" />
        </mxCell>
        <mxCell id="JcELHo9t9HgocP2iokCu-57" value="Тип взаимодействия" style="text;strokeColor=none;fillColor=none;spacingLeft=4;spacingRight=4;overflow=hidden;rotatable=0;points=[[0,0.5],[1,0.5]];portConstraint=eastwest;fontSize=12;whiteSpace=wrap;html=1;" parent="JcELHo9t9HgocP2iokCu-55" vertex="1">
          <mxGeometry y="59" width="160" height="33" as="geometry" />
        </mxCell>
        <mxCell id="JcELHo9t9HgocP2iokCu-58" value="Дата действия" style="text;strokeColor=none;fillColor=none;spacingLeft=4;spacingRight=4;overflow=hidden;rotatable=0;points=[[0,0.5],[1,0.5]];portConstraint=eastwest;fontSize=12;whiteSpace=wrap;html=1;" parent="JcELHo9t9HgocP2iokCu-55" vertex="1">
          <mxGeometry y="92" width="160" height="30" as="geometry" />
        </mxCell>
        <mxCell id="JcELHo9t9HgocP2iokCu-59" value="Тип лога" style="text;strokeColor=none;fillColor=none;spacingLeft=4;spacingRight=4;overflow=hidden;rotatable=0;points=[[0,0.5],[1,0.5]];portConstraint=eastwest;fontSize=12;whiteSpace=wrap;html=1;" parent="JcELHo9t9HgocP2iokCu-55" vertex="1">
          <mxGeometry y="122" width="160" height="30" as="geometry" />
        </mxCell>
        <mxCell id="JcELHo9t9HgocP2iokCu-60" value="Название" style="text;strokeColor=none;fillColor=none;spacingLeft=4;spacingRight=4;overflow=hidden;rotatable=0;points=[[0,0.5],[1,0.5]];portConstraint=eastwest;fontSize=12;whiteSpace=wrap;html=1;" parent="JcELHo9t9HgocP2iokCu-55" vertex="1">
          <mxGeometry y="152" width="160" height="40" as="geometry" />
        </mxCell>
        <mxCell id="JcELHo9t9HgocP2iokCu-61" value="Пользователь (FK)" style="text;strokeColor=none;fillColor=none;spacingLeft=4;spacingRight=4;overflow=hidden;rotatable=0;points=[[0,0.5],[1,0.5]];portConstraint=eastwest;fontSize=12;whiteSpace=wrap;html=1;" parent="JcELHo9t9HgocP2iokCu-55" vertex="1">
          <mxGeometry y="192" width="160" height="31" as="geometry" />
        </mxCell>
        <mxCell id="JcELHo9t9HgocP2iokCu-62" value="Транзакции Пользователя" style="swimlane;fontStyle=0;childLayout=stackLayout;horizontal=1;startSize=26;horizontalStack=0;resizeParent=1;resizeParentMax=0;resizeLast=0;collapsible=1;marginBottom=0;align=center;fontSize=14;rounded=1;" parent="1" vertex="1">
          <mxGeometry x="1605.5" y="278" width="205" height="143" as="geometry" />
        </mxCell>
        <mxCell id="JcELHo9t9HgocP2iokCu-63" value="Пользователь" style="text;strokeColor=none;fillColor=none;spacingLeft=4;spacingRight=4;overflow=hidden;rotatable=0;points=[[0,0.5],[1,0.5]];portConstraint=eastwest;fontSize=12;whiteSpace=wrap;html=1;" parent="JcELHo9t9HgocP2iokCu-62" vertex="1">
          <mxGeometry y="26" width="205" height="44" as="geometry" />
        </mxCell>
        <mxCell id="JcELHo9t9HgocP2iokCu-64" value="Транзакция" style="text;strokeColor=none;fillColor=none;spacingLeft=4;spacingRight=4;overflow=hidden;rotatable=0;points=[[0,0.5],[1,0.5]];portConstraint=eastwest;fontSize=12;whiteSpace=wrap;html=1;" parent="JcELHo9t9HgocP2iokCu-62" vertex="1">
          <mxGeometry y="70" width="205" height="40" as="geometry" />
        </mxCell>
        <mxCell id="JcELHo9t9HgocP2iokCu-65" value="UID (PK)" style="text;strokeColor=default;fillColor=default;spacingLeft=4;spacingRight=4;overflow=hidden;rotatable=0;points=[[0,0.5],[1,0.5]];portConstraint=eastwest;fontSize=12;whiteSpace=wrap;html=1;" parent="JcELHo9t9HgocP2iokCu-62" vertex="1">
          <mxGeometry y="110" width="205" height="33" as="geometry" />
        </mxCell>
        <mxCell id="JcELHo9t9HgocP2iokCu-66" value="&lt;font style=&quot;font-size: 16px;&quot;&gt;P&lt;/font&gt;" style="text;html=1;align=center;verticalAlign=middle;whiteSpace=wrap;rounded=0;" parent="1" vertex="1">
          <mxGeometry x="1826" y="352" width="60" height="30" as="geometry" />
        </mxCell>
        <mxCell id="JcELHo9t9HgocP2iokCu-67" value="Создает" style="text;html=1;align=center;verticalAlign=middle;whiteSpace=wrap;rounded=0;" parent="1" vertex="1">
          <mxGeometry x="1355" y="10" width="60" height="30" as="geometry" />
        </mxCell>
        <mxCell id="JcELHo9t9HgocP2iokCu-68" value="Включает" style="text;html=1;align=center;verticalAlign=middle;whiteSpace=wrap;rounded=0;" parent="1" vertex="1">
          <mxGeometry x="1329" y="244" width="60" height="30" as="geometry" />
        </mxCell>
        <mxCell id="JcELHo9t9HgocP2iokCu-69" value="Включает" style="text;html=1;align=center;verticalAlign=middle;whiteSpace=wrap;rounded=0;" parent="1" vertex="1">
          <mxGeometry x="1691" y="187" width="60" height="30" as="geometry" />
        </mxCell>
        <mxCell id="JcELHo9t9HgocP2iokCu-70" value="Включает" style="text;html=1;align=center;verticalAlign=middle;whiteSpace=wrap;rounded=0;" parent="1" vertex="1">
          <mxGeometry x="1592" y="244" width="60" height="30" as="geometry" />
        </mxCell>
        <mxCell id="JcELHo9t9HgocP2iokCu-71" value="Включает" style="text;html=1;align=center;verticalAlign=middle;whiteSpace=wrap;rounded=0;" parent="1" vertex="1">
          <mxGeometry x="1833" y="382" width="60" height="30" as="geometry" />
        </mxCell>
        <mxCell id="JcELHo9t9HgocP2iokCu-72" value="Инициализирует" style="text;html=1;align=center;verticalAlign=middle;whiteSpace=wrap;rounded=0;" parent="1" vertex="1">
          <mxGeometry x="1548" y="561" width="60" height="30" as="geometry" />
        </mxCell>
        <mxCell id="JcELHo9t9HgocP2iokCu-73" value="&lt;div&gt;Включает&lt;/div&gt;" style="text;html=1;align=center;verticalAlign=middle;whiteSpace=wrap;rounded=0;" parent="1" vertex="1">
          <mxGeometry x="1552" y="652" width="60" height="30" as="geometry" />
        </mxCell>
        <mxCell id="JcELHo9t9HgocP2iokCu-74" value="&lt;div&gt;Включает&lt;/div&gt;" style="text;html=1;align=center;verticalAlign=middle;whiteSpace=wrap;rounded=0;" parent="1" vertex="1">
          <mxGeometry x="1588" y="913" width="60" height="29" as="geometry" />
        </mxCell>
        <mxCell id="JcELHo9t9HgocP2iokCu-75" value="D: DSD" style="text;html=1;align=center;verticalAlign=middle;whiteSpace=wrap;rounded=0;" parent="1" vertex="1">
          <mxGeometry x="1300" y="288" width="60" height="30" as="geometry" />
        </mxCell>
        <mxCell id="JcELHo9t9HgocP2iokCu-76" value="D: DC" style="text;html=1;align=center;verticalAlign=middle;whiteSpace=wrap;rounded=0;" parent="1" vertex="1">
          <mxGeometry x="1631" y="193" width="60" height="30" as="geometry" />
        </mxCell>
        <mxCell id="JcELHo9t9HgocP2iokCu-77" value="D: DSN" style="text;html=1;align=center;verticalAlign=middle;whiteSpace=wrap;rounded=0;" parent="1" vertex="1">
          <mxGeometry x="1323" y="51" width="60" height="30" as="geometry" />
        </mxCell>
        <mxCell id="JcELHo9t9HgocP2iokCu-78" value="D: DSN" style="text;html=1;align=center;verticalAlign=middle;whiteSpace=wrap;rounded=0;" parent="1" vertex="1">
          <mxGeometry x="1592" y="56" width="60" height="30" as="geometry" />
        </mxCell>
        <mxCell id="JcELHo9t9HgocP2iokCu-79" value="D: DR" style="text;html=1;align=center;verticalAlign=middle;whiteSpace=wrap;rounded=0;" parent="1" vertex="1">
          <mxGeometry x="1580" y="124" width="60" height="30" as="geometry" />
        </mxCell>
        <mxCell id="JcELHo9t9HgocP2iokCu-80" value="D: DR" style="text;html=1;align=center;verticalAlign=middle;whiteSpace=wrap;rounded=0;" parent="1" vertex="1">
          <mxGeometry x="1716" y="449.5" width="60" height="30" as="geometry" />
        </mxCell>
        <mxCell id="JcELHo9t9HgocP2iokCu-81" value="D: DSN" style="text;html=1;align=center;verticalAlign=middle;whiteSpace=wrap;rounded=0;" parent="1" vertex="1">
          <mxGeometry x="1661" y="915" width="60" height="30" as="geometry" />
        </mxCell>
        <mxCell id="JcELHo9t9HgocP2iokCu-82" value="D: DR" style="text;html=1;align=center;verticalAlign=middle;whiteSpace=wrap;rounded=0;" parent="1" vertex="1">
          <mxGeometry x="1467" y="644" width="60" height="30" as="geometry" />
        </mxCell>
        <mxCell id="rJ0kQcTDlxO3CX2pYhGM-5" value="&amp;lt;&amp;lt;utility&amp;gt;&amp;gt;&lt;br&gt;ChartManager" style="swimlane;fontStyle=1;align=center;verticalAlign=top;childLayout=stackLayout;horizontal=1;startSize=26;horizontalStack=0;resizeParent=1;resizeParentMax=0;resizeLast=0;collapsible=1;marginBottom=0;whiteSpace=wrap;html=1;" vertex="1" parent="1">
          <mxGeometry x="3562" y="464" width="275" height="146" as="geometry" />
        </mxCell>
        <mxCell id="rJ0kQcTDlxO3CX2pYhGM-7" value="" style="line;strokeWidth=1;fillColor=none;align=left;verticalAlign=middle;spacingTop=-1;spacingLeft=3;spacingRight=3;rotatable=0;labelPosition=right;points=[];portConstraint=eastwest;strokeColor=inherit;" vertex="1" parent="rJ0kQcTDlxO3CX2pYhGM-5">
          <mxGeometry y="26" width="275" height="8" as="geometry" />
        </mxCell>
        <mxCell id="rJ0kQcTDlxO3CX2pYhGM-8" value="+ GetTONPriceChart(timeframe: DateTime[2]): JsonResponse" style="text;strokeColor=none;fillColor=none;align=left;verticalAlign=top;spacingLeft=4;spacingRight=4;overflow=hidden;rotatable=0;points=[[0,0.5],[1,0.5]];portConstraint=eastwest;whiteSpace=wrap;html=1;" vertex="1" parent="rJ0kQcTDlxO3CX2pYhGM-5">
          <mxGeometry y="34" width="275" height="56" as="geometry" />
        </mxCell>
        <mxCell id="rJ0kQcTDlxO3CX2pYhGM-9" value="+GetTONCapitalizationChart(timeframe: DateTime[2]): JsonResponse" style="text;strokeColor=none;fillColor=none;align=left;verticalAlign=top;spacingLeft=4;spacingRight=4;overflow=hidden;rotatable=0;points=[[0,0.5],[1,0.5]];portConstraint=eastwest;whiteSpace=wrap;html=1;" vertex="1" parent="rJ0kQcTDlxO3CX2pYhGM-5">
          <mxGeometry y="90" width="275" height="56" as="geometry" />
        </mxCell>
        <mxCell id="rJ0kQcTDlxO3CX2pYhGM-16" value="Main" style="rounded=0;whiteSpace=wrap;html=1;" vertex="1" parent="1">
          <mxGeometry x="3084" y="435" width="234" height="126" as="geometry" />
        </mxCell>
        <mxCell id="rJ0kQcTDlxO3CX2pYhGM-24" value="Users" style="swimlane;fontStyle=1;align=center;verticalAlign=top;childLayout=stackLayout;horizontal=1;startSize=26;horizontalStack=0;resizeParent=1;resizeParentMax=0;resizeLast=0;collapsible=1;marginBottom=0;whiteSpace=wrap;html=1;" vertex="1" parent="1">
          <mxGeometry x="2701" y="477" width="160" height="192" as="geometry" />
        </mxCell>
        <mxCell id="rJ0kQcTDlxO3CX2pYhGM-25" value="+ ID: uint" style="text;strokeColor=none;fillColor=none;align=left;verticalAlign=top;spacingLeft=4;spacingRight=4;overflow=hidden;rotatable=0;points=[[0,0.5],[1,0.5]];portConstraint=eastwest;whiteSpace=wrap;html=1;" vertex="1" parent="rJ0kQcTDlxO3CX2pYhGM-24">
          <mxGeometry y="26" width="160" height="26" as="geometry" />
        </mxCell>
        <mxCell id="rJ0kQcTDlxO3CX2pYhGM-33" value="+ Login: String" style="text;strokeColor=none;fillColor=none;align=left;verticalAlign=top;spacingLeft=4;spacingRight=4;overflow=hidden;rotatable=0;points=[[0,0.5],[1,0.5]];portConstraint=eastwest;whiteSpace=wrap;html=1;" vertex="1" parent="rJ0kQcTDlxO3CX2pYhGM-24">
          <mxGeometry y="52" width="160" height="28" as="geometry" />
        </mxCell>
        <mxCell id="rJ0kQcTDlxO3CX2pYhGM-32" value="+ Password: String" style="text;strokeColor=none;fillColor=none;align=left;verticalAlign=top;spacingLeft=4;spacingRight=4;overflow=hidden;rotatable=0;points=[[0,0.5],[1,0.5]];portConstraint=eastwest;whiteSpace=wrap;html=1;" vertex="1" parent="rJ0kQcTDlxO3CX2pYhGM-24">
          <mxGeometry y="80" width="160" height="26" as="geometry" />
        </mxCell>
        <mxCell id="rJ0kQcTDlxO3CX2pYhGM-31" value="+ Email: String" style="text;strokeColor=none;fillColor=none;align=left;verticalAlign=top;spacingLeft=4;spacingRight=4;overflow=hidden;rotatable=0;points=[[0,0.5],[1,0.5]];portConstraint=eastwest;whiteSpace=wrap;html=1;" vertex="1" parent="rJ0kQcTDlxO3CX2pYhGM-24">
          <mxGeometry y="106" width="160" height="26" as="geometry" />
        </mxCell>
        <mxCell id="rJ0kQcTDlxO3CX2pYhGM-62" value="+ UID: String" style="text;strokeColor=none;fillColor=none;align=left;verticalAlign=top;spacingLeft=4;spacingRight=4;overflow=hidden;rotatable=0;points=[[0,0.5],[1,0.5]];portConstraint=eastwest;whiteSpace=wrap;html=1;" vertex="1" parent="rJ0kQcTDlxO3CX2pYhGM-24">
          <mxGeometry y="132" width="160" height="26" as="geometry" />
        </mxCell>
        <mxCell id="rJ0kQcTDlxO3CX2pYhGM-70" value="+ role: Role" style="text;strokeColor=none;fillColor=none;align=left;verticalAlign=top;spacingLeft=4;spacingRight=4;overflow=hidden;rotatable=0;points=[[0,0.5],[1,0.5]];portConstraint=eastwest;whiteSpace=wrap;html=1;" vertex="1" parent="rJ0kQcTDlxO3CX2pYhGM-24">
          <mxGeometry y="158" width="160" height="26" as="geometry" />
        </mxCell>
        <mxCell id="rJ0kQcTDlxO3CX2pYhGM-26" value="" style="line;strokeWidth=1;fillColor=none;align=left;verticalAlign=middle;spacingTop=-1;spacingLeft=3;spacingRight=3;rotatable=0;labelPosition=right;points=[];portConstraint=eastwest;strokeColor=inherit;" vertex="1" parent="rJ0kQcTDlxO3CX2pYhGM-24">
          <mxGeometry y="184" width="160" height="8" as="geometry" />
        </mxCell>
        <mxCell id="rJ0kQcTDlxO3CX2pYhGM-41" value="&lt;div&gt;&amp;lt;&amp;lt;Utility&amp;gt;&amp;gt;&lt;/div&gt;AuthManager" style="swimlane;fontStyle=1;align=center;verticalAlign=top;childLayout=stackLayout;horizontal=1;startSize=26;horizontalStack=0;resizeParent=1;resizeParentMax=0;resizeLast=0;collapsible=1;marginBottom=0;whiteSpace=wrap;html=1;" vertex="1" parent="1">
          <mxGeometry x="2978" y="616" width="160" height="136" as="geometry" />
        </mxCell>
        <mxCell id="rJ0kQcTDlxO3CX2pYhGM-43" value="" style="line;strokeWidth=1;fillColor=none;align=left;verticalAlign=middle;spacingTop=-1;spacingLeft=3;spacingRight=3;rotatable=0;labelPosition=right;points=[];portConstraint=eastwest;strokeColor=inherit;" vertex="1" parent="rJ0kQcTDlxO3CX2pYhGM-41">
          <mxGeometry y="26" width="160" height="8" as="geometry" />
        </mxCell>
        <mxCell id="rJ0kQcTDlxO3CX2pYhGM-44" value="+ Registration(context): HTTPResponse" style="text;strokeColor=none;fillColor=none;align=left;verticalAlign=top;spacingLeft=4;spacingRight=4;overflow=hidden;rotatable=0;points=[[0,0.5],[1,0.5]];portConstraint=eastwest;whiteSpace=wrap;html=1;" vertex="1" parent="rJ0kQcTDlxO3CX2pYhGM-41">
          <mxGeometry y="34" width="160" height="51" as="geometry" />
        </mxCell>
        <mxCell id="rJ0kQcTDlxO3CX2pYhGM-45" value="+ Authorization(context): HTTPResponse" style="text;strokeColor=none;fillColor=none;align=left;verticalAlign=top;spacingLeft=4;spacingRight=4;overflow=hidden;rotatable=0;points=[[0,0.5],[1,0.5]];portConstraint=eastwest;whiteSpace=wrap;html=1;" vertex="1" parent="rJ0kQcTDlxO3CX2pYhGM-41">
          <mxGeometry y="85" width="160" height="51" as="geometry" />
        </mxCell>
        <mxCell id="rJ0kQcTDlxO3CX2pYhGM-47" value="0.." style="text;html=1;align=center;verticalAlign=middle;whiteSpace=wrap;rounded=0;" vertex="1" parent="1">
          <mxGeometry x="2823" y="526" width="60" height="30" as="geometry" />
        </mxCell>
        <mxCell id="rJ0kQcTDlxO3CX2pYhGM-50" value="is managed in" style="text;whiteSpace=wrap;html=1;align=center;" vertex="1" parent="1">
          <mxGeometry x="2937" y="550" width="77" height="31" as="geometry" />
        </mxCell>
        <mxCell id="rJ0kQcTDlxO3CX2pYhGM-52" value="" style="endArrow=classic;html=1;rounded=0;entryX=0.011;entryY=0.157;entryDx=0;entryDy=0;entryPerimeter=0;exitX=0.993;exitY=0.016;exitDx=0;exitDy=0;exitPerimeter=0;" edge="1" parent="1" source="rJ0kQcTDlxO3CX2pYhGM-25" target="rJ0kQcTDlxO3CX2pYhGM-41">
          <mxGeometry width="50" height="50" relative="1" as="geometry">
            <mxPoint x="2963" y="840" as="sourcePoint" />
            <mxPoint x="3013" y="790" as="targetPoint" />
          </mxGeometry>
        </mxCell>
        <mxCell id="rJ0kQcTDlxO3CX2pYhGM-53" value="" style="endArrow=none;html=1;rounded=0;entryX=-0.001;entryY=0.348;entryDx=0;entryDy=0;entryPerimeter=0;exitX=1;exitY=0.5;exitDx=0;exitDy=0;" edge="1" parent="1" source="rJ0kQcTDlxO3CX2pYhGM-54" target="rJ0kQcTDlxO3CX2pYhGM-8">
          <mxGeometry width="50" height="50" relative="1" as="geometry">
            <mxPoint x="3366" y="527" as="sourcePoint" />
            <mxPoint x="3304" y="568" as="targetPoint" />
          </mxGeometry>
        </mxCell>
        <mxCell id="rJ0kQcTDlxO3CX2pYhGM-54" value="" style="rhombus;whiteSpace=wrap;html=1;" vertex="1" parent="1">
          <mxGeometry x="3314" y="507" width="43" height="37" as="geometry" />
        </mxCell>
        <mxCell id="rJ0kQcTDlxO3CX2pYhGM-57" value="" style="endArrow=none;html=1;rounded=0;exitX=0.986;exitY=0.059;exitDx=0;exitDy=0;exitPerimeter=0;entryX=0.5;entryY=0;entryDx=0;entryDy=0;" edge="1" parent="1" source="rJ0kQcTDlxO3CX2pYhGM-24" target="rJ0kQcTDlxO3CX2pYhGM-58">
          <mxGeometry width="50" height="50" relative="1" as="geometry">
            <mxPoint x="2841" y="590" as="sourcePoint" />
            <mxPoint x="3063" y="568" as="targetPoint" />
          </mxGeometry>
        </mxCell>
        <mxCell id="rJ0kQcTDlxO3CX2pYhGM-58" value="" style="rhombus;whiteSpace=wrap;html=1;direction=north;rotation=15;" vertex="1" parent="1">
          <mxGeometry x="3047" y="506" width="37" height="39" as="geometry" />
        </mxCell>
        <mxCell id="rJ0kQcTDlxO3CX2pYhGM-71" value="Role" style="swimlane;fontStyle=1;align=center;verticalAlign=top;childLayout=stackLayout;horizontal=1;startSize=26;horizontalStack=0;resizeParent=1;resizeParentMax=0;resizeLast=0;collapsible=1;marginBottom=0;whiteSpace=wrap;html=1;" vertex="1" parent="1">
          <mxGeometry x="2494" y="384" width="160" height="139" as="geometry" />
        </mxCell>
        <mxCell id="rJ0kQcTDlxO3CX2pYhGM-72" value="+ ID: uint" style="text;strokeColor=none;fillColor=none;align=left;verticalAlign=top;spacingLeft=4;spacingRight=4;overflow=hidden;rotatable=0;points=[[0,0.5],[1,0.5]];portConstraint=eastwest;whiteSpace=wrap;html=1;" vertex="1" parent="rJ0kQcTDlxO3CX2pYhGM-71">
          <mxGeometry y="26" width="160" height="26" as="geometry" />
        </mxCell>
        <mxCell id="rJ0kQcTDlxO3CX2pYhGM-73" value="+ Name: String" style="text;strokeColor=none;fillColor=none;align=left;verticalAlign=top;spacingLeft=4;spacingRight=4;overflow=hidden;rotatable=0;points=[[0,0.5],[1,0.5]];portConstraint=eastwest;whiteSpace=wrap;html=1;" vertex="1" parent="rJ0kQcTDlxO3CX2pYhGM-71">
          <mxGeometry y="52" width="160" height="28" as="geometry" />
        </mxCell>
        <mxCell id="rJ0kQcTDlxO3CX2pYhGM-78" value="" style="line;strokeWidth=1;fillColor=none;align=left;verticalAlign=middle;spacingTop=-1;spacingLeft=3;spacingRight=3;rotatable=0;labelPosition=right;points=[];portConstraint=eastwest;strokeColor=inherit;" vertex="1" parent="rJ0kQcTDlxO3CX2pYhGM-71">
          <mxGeometry y="80" width="160" height="8" as="geometry" />
        </mxCell>
        <mxCell id="rJ0kQcTDlxO3CX2pYhGM-161" value="+ CreateRole(context): null" style="text;strokeColor=none;fillColor=none;align=left;verticalAlign=top;spacingLeft=4;spacingRight=4;overflow=hidden;rotatable=0;points=[[0,0.5],[1,0.5]];portConstraint=eastwest;whiteSpace=wrap;html=1;" vertex="1" parent="rJ0kQcTDlxO3CX2pYhGM-71">
          <mxGeometry y="88" width="160" height="51" as="geometry" />
        </mxCell>
        <mxCell id="rJ0kQcTDlxO3CX2pYhGM-79" value="1" style="html=1;verticalAlign=bottom;endArrow=open;dashed=1;endSize=8;curved=0;rounded=0;exitX=0.006;exitY=0.069;exitDx=0;exitDy=0;exitPerimeter=0;entryX=1;entryY=0.25;entryDx=0;entryDy=0;" edge="1" parent="1" source="rJ0kQcTDlxO3CX2pYhGM-25" target="rJ0kQcTDlxO3CX2pYhGM-71">
          <mxGeometry relative="1" as="geometry">
            <mxPoint x="2630" y="508" as="sourcePoint" />
            <mxPoint x="2550" y="508" as="targetPoint" />
          </mxGeometry>
        </mxCell>
        <mxCell id="rJ0kQcTDlxO3CX2pYhGM-87" value="&amp;lt;&amp;lt;Utility&amp;gt;&amp;gt;&lt;br&gt;LogsManager" style="swimlane;fontStyle=1;align=center;verticalAlign=top;childLayout=stackLayout;horizontal=1;startSize=26;horizontalStack=0;resizeParent=1;resizeParentMax=0;resizeLast=0;collapsible=1;marginBottom=0;whiteSpace=wrap;html=1;" vertex="1" parent="1">
          <mxGeometry x="3114" y="61" width="160" height="136" as="geometry" />
        </mxCell>
        <mxCell id="rJ0kQcTDlxO3CX2pYhGM-88" value="" style="line;strokeWidth=1;fillColor=none;align=left;verticalAlign=middle;spacingTop=-1;spacingLeft=3;spacingRight=3;rotatable=0;labelPosition=right;points=[];portConstraint=eastwest;strokeColor=inherit;" vertex="1" parent="rJ0kQcTDlxO3CX2pYhGM-87">
          <mxGeometry y="26" width="160" height="8" as="geometry" />
        </mxCell>
        <mxCell id="rJ0kQcTDlxO3CX2pYhGM-89" value="+ CreateLog(context): null" style="text;strokeColor=none;fillColor=none;align=left;verticalAlign=top;spacingLeft=4;spacingRight=4;overflow=hidden;rotatable=0;points=[[0,0.5],[1,0.5]];portConstraint=eastwest;whiteSpace=wrap;html=1;" vertex="1" parent="rJ0kQcTDlxO3CX2pYhGM-87">
          <mxGeometry y="34" width="160" height="51" as="geometry" />
        </mxCell>
        <mxCell id="rJ0kQcTDlxO3CX2pYhGM-90" value="+ SaveLog(context): null" style="text;strokeColor=none;fillColor=none;align=left;verticalAlign=top;spacingLeft=4;spacingRight=4;overflow=hidden;rotatable=0;points=[[0,0.5],[1,0.5]];portConstraint=eastwest;whiteSpace=wrap;html=1;" vertex="1" parent="rJ0kQcTDlxO3CX2pYhGM-87">
          <mxGeometry y="85" width="160" height="51" as="geometry" />
        </mxCell>
        <mxCell id="rJ0kQcTDlxO3CX2pYhGM-91" value="" style="html=1;verticalAlign=bottom;endArrow=open;dashed=1;endSize=8;curved=0;rounded=0;exitX=0.436;exitY=0.003;exitDx=0;exitDy=0;exitPerimeter=0;entryX=-0.002;entryY=0.08;entryDx=0;entryDy=0;entryPerimeter=0;" edge="1" parent="1" source="rJ0kQcTDlxO3CX2pYhGM-24" target="rJ0kQcTDlxO3CX2pYhGM-92">
          <mxGeometry relative="1" as="geometry">
            <mxPoint x="2855" y="341" as="sourcePoint" />
            <mxPoint x="2791" y="150" as="targetPoint" />
            <Array as="points">
              <mxPoint x="2768" y="303" />
            </Array>
          </mxGeometry>
        </mxCell>
        <mxCell id="rJ0kQcTDlxO3CX2pYhGM-92" value="Logs" style="swimlane;fontStyle=1;align=center;verticalAlign=top;childLayout=stackLayout;horizontal=1;startSize=26;horizontalStack=0;resizeParent=1;resizeParentMax=0;resizeLast=0;collapsible=1;marginBottom=0;whiteSpace=wrap;html=1;" vertex="1" parent="1">
          <mxGeometry x="2841" y="260" width="160" height="164" as="geometry" />
        </mxCell>
        <mxCell id="rJ0kQcTDlxO3CX2pYhGM-93" value="+ id: uint" style="text;strokeColor=none;fillColor=none;align=left;verticalAlign=top;spacingLeft=4;spacingRight=4;overflow=hidden;rotatable=0;points=[[0,0.5],[1,0.5]];portConstraint=eastwest;whiteSpace=wrap;html=1;" vertex="1" parent="rJ0kQcTDlxO3CX2pYhGM-92">
          <mxGeometry y="26" width="160" height="26" as="geometry" />
        </mxCell>
        <mxCell id="rJ0kQcTDlxO3CX2pYhGM-97" value="+ type: String" style="text;strokeColor=none;fillColor=none;align=left;verticalAlign=top;spacingLeft=4;spacingRight=4;overflow=hidden;rotatable=0;points=[[0,0.5],[1,0.5]];portConstraint=eastwest;whiteSpace=wrap;html=1;" vertex="1" parent="rJ0kQcTDlxO3CX2pYhGM-92">
          <mxGeometry y="52" width="160" height="26" as="geometry" />
        </mxCell>
        <mxCell id="rJ0kQcTDlxO3CX2pYhGM-98" value="+ log_type: String" style="text;strokeColor=none;fillColor=none;align=left;verticalAlign=top;spacingLeft=4;spacingRight=4;overflow=hidden;rotatable=0;points=[[0,0.5],[1,0.5]];portConstraint=eastwest;whiteSpace=wrap;html=1;" vertex="1" parent="rJ0kQcTDlxO3CX2pYhGM-92">
          <mxGeometry y="78" width="160" height="26" as="geometry" />
        </mxCell>
        <mxCell id="rJ0kQcTDlxO3CX2pYhGM-99" value="+ name: String" style="text;strokeColor=none;fillColor=none;align=left;verticalAlign=top;spacingLeft=4;spacingRight=4;overflow=hidden;rotatable=0;points=[[0,0.5],[1,0.5]];portConstraint=eastwest;whiteSpace=wrap;html=1;" vertex="1" parent="rJ0kQcTDlxO3CX2pYhGM-92">
          <mxGeometry y="104" width="160" height="26" as="geometry" />
        </mxCell>
        <mxCell id="rJ0kQcTDlxO3CX2pYhGM-100" value="+ user: User" style="text;strokeColor=none;fillColor=none;align=left;verticalAlign=top;spacingLeft=4;spacingRight=4;overflow=hidden;rotatable=0;points=[[0,0.5],[1,0.5]];portConstraint=eastwest;whiteSpace=wrap;html=1;" vertex="1" parent="rJ0kQcTDlxO3CX2pYhGM-92">
          <mxGeometry y="130" width="160" height="26" as="geometry" />
        </mxCell>
        <mxCell id="rJ0kQcTDlxO3CX2pYhGM-94" value="" style="line;strokeWidth=1;fillColor=none;align=left;verticalAlign=middle;spacingTop=-1;spacingLeft=3;spacingRight=3;rotatable=0;labelPosition=right;points=[];portConstraint=eastwest;strokeColor=inherit;" vertex="1" parent="rJ0kQcTDlxO3CX2pYhGM-92">
          <mxGeometry y="156" width="160" height="8" as="geometry" />
        </mxCell>
        <mxCell id="rJ0kQcTDlxO3CX2pYhGM-101" value="1" style="text;html=1;align=center;verticalAlign=middle;whiteSpace=wrap;rounded=0;" vertex="1" parent="1">
          <mxGeometry x="2721" y="281" width="60" height="30" as="geometry" />
        </mxCell>
        <mxCell id="rJ0kQcTDlxO3CX2pYhGM-103" value="" style="endArrow=classic;html=1;rounded=0;exitX=0.996;exitY=0.073;exitDx=0;exitDy=0;exitPerimeter=0;entryX=-0.004;entryY=0.158;entryDx=0;entryDy=0;entryPerimeter=0;" edge="1" parent="1" source="rJ0kQcTDlxO3CX2pYhGM-92" target="rJ0kQcTDlxO3CX2pYhGM-87">
          <mxGeometry width="50" height="50" relative="1" as="geometry">
            <mxPoint x="3198" y="329" as="sourcePoint" />
            <mxPoint x="3248" y="279" as="targetPoint" />
          </mxGeometry>
        </mxCell>
        <mxCell id="rJ0kQcTDlxO3CX2pYhGM-105" value="is managed in" style="text;html=1;align=center;verticalAlign=middle;whiteSpace=wrap;rounded=0;" vertex="1" parent="1">
          <mxGeometry x="2968" y="132" width="96" height="30" as="geometry" />
        </mxCell>
        <mxCell id="rJ0kQcTDlxO3CX2pYhGM-108" value="" style="endArrow=none;html=1;rounded=0;exitX=1;exitY=0.5;exitDx=0;exitDy=0;" edge="1" parent="1" source="rJ0kQcTDlxO3CX2pYhGM-98">
          <mxGeometry width="50" height="50" relative="1" as="geometry">
            <mxPoint x="3075" y="458" as="sourcePoint" />
            <mxPoint x="3063" y="428" as="targetPoint" />
          </mxGeometry>
        </mxCell>
        <mxCell id="rJ0kQcTDlxO3CX2pYhGM-109" value="" style="rhombus;whiteSpace=wrap;html=1;direction=south;" vertex="1" parent="1">
          <mxGeometry x="3045" y="427" width="41" height="37" as="geometry" />
        </mxCell>
        <mxCell id="rJ0kQcTDlxO3CX2pYhGM-111" value="" style="endArrow=none;html=1;rounded=0;entryX=0.388;entryY=1.025;entryDx=0;entryDy=0;entryPerimeter=0;" edge="1" parent="1" target="rJ0kQcTDlxO3CX2pYhGM-90">
          <mxGeometry width="50" height="50" relative="1" as="geometry">
            <mxPoint x="3163" y="403" as="sourcePoint" />
            <mxPoint x="3266" y="316" as="targetPoint" />
          </mxGeometry>
        </mxCell>
        <mxCell id="rJ0kQcTDlxO3CX2pYhGM-116" value="" style="endArrow=none;html=1;rounded=0;exitX=0.5;exitY=0;exitDx=0;exitDy=0;" edge="1" parent="1" source="rJ0kQcTDlxO3CX2pYhGM-41">
          <mxGeometry width="50" height="50" relative="1" as="geometry">
            <mxPoint x="3163" y="679" as="sourcePoint" />
            <mxPoint x="3102" y="595" as="targetPoint" />
          </mxGeometry>
        </mxCell>
        <mxCell id="rJ0kQcTDlxO3CX2pYhGM-117" value="" style="shape=flexArrow;endArrow=classic;html=1;rounded=0;entryX=0.129;entryY=1.013;entryDx=0;entryDy=0;entryPerimeter=0;" edge="1" parent="1" target="rJ0kQcTDlxO3CX2pYhGM-16">
          <mxGeometry width="50" height="50" relative="1" as="geometry">
            <mxPoint x="3101" y="595" as="sourcePoint" />
            <mxPoint x="3128" y="563.5" as="targetPoint" />
          </mxGeometry>
        </mxCell>
        <mxCell id="rJ0kQcTDlxO3CX2pYhGM-119" value="" style="shape=flexArrow;endArrow=classic;html=1;rounded=0;entryX=0.321;entryY=0;entryDx=0;entryDy=0;entryPerimeter=0;" edge="1" parent="1" target="rJ0kQcTDlxO3CX2pYhGM-16">
          <mxGeometry width="50" height="50" relative="1" as="geometry">
            <mxPoint x="3163" y="402" as="sourcePoint" />
            <mxPoint x="3140" y="364" as="targetPoint" />
          </mxGeometry>
        </mxCell>
        <mxCell id="rJ0kQcTDlxO3CX2pYhGM-128" value="Users_tx" style="swimlane;fontStyle=1;align=center;verticalAlign=top;childLayout=stackLayout;horizontal=1;startSize=26;horizontalStack=0;resizeParent=1;resizeParentMax=0;resizeLast=0;collapsible=1;marginBottom=0;whiteSpace=wrap;html=1;" vertex="1" parent="1">
          <mxGeometry x="2689" y="791" width="160" height="159" as="geometry" />
        </mxCell>
        <mxCell id="rJ0kQcTDlxO3CX2pYhGM-129" value="+ UID: UUID" style="text;strokeColor=none;fillColor=none;align=left;verticalAlign=top;spacingLeft=4;spacingRight=4;overflow=hidden;rotatable=0;points=[[0,0.5],[1,0.5]];portConstraint=eastwest;whiteSpace=wrap;html=1;" vertex="1" parent="rJ0kQcTDlxO3CX2pYhGM-128">
          <mxGeometry y="26" width="160" height="26" as="geometry" />
        </mxCell>
        <mxCell id="rJ0kQcTDlxO3CX2pYhGM-132" value="+ user: User" style="text;strokeColor=none;fillColor=none;align=left;verticalAlign=top;spacingLeft=4;spacingRight=4;overflow=hidden;rotatable=0;points=[[0,0.5],[1,0.5]];portConstraint=eastwest;whiteSpace=wrap;html=1;" vertex="1" parent="rJ0kQcTDlxO3CX2pYhGM-128">
          <mxGeometry y="52" width="160" height="26" as="geometry" />
        </mxCell>
        <mxCell id="rJ0kQcTDlxO3CX2pYhGM-133" value="+ tx: Transaction" style="text;strokeColor=none;fillColor=none;align=left;verticalAlign=top;spacingLeft=4;spacingRight=4;overflow=hidden;rotatable=0;points=[[0,0.5],[1,0.5]];portConstraint=eastwest;whiteSpace=wrap;html=1;" vertex="1" parent="rJ0kQcTDlxO3CX2pYhGM-128">
          <mxGeometry y="78" width="160" height="26" as="geometry" />
        </mxCell>
        <mxCell id="rJ0kQcTDlxO3CX2pYhGM-130" value="" style="line;strokeWidth=1;fillColor=none;align=left;verticalAlign=middle;spacingTop=-1;spacingLeft=3;spacingRight=3;rotatable=0;labelPosition=right;points=[];portConstraint=eastwest;strokeColor=inherit;" vertex="1" parent="rJ0kQcTDlxO3CX2pYhGM-128">
          <mxGeometry y="104" width="160" height="8" as="geometry" />
        </mxCell>
        <mxCell id="rJ0kQcTDlxO3CX2pYhGM-131" value="- create_user_tx(context): null" style="text;strokeColor=none;fillColor=none;align=left;verticalAlign=top;spacingLeft=4;spacingRight=4;overflow=hidden;rotatable=0;points=[[0,0.5],[1,0.5]];portConstraint=eastwest;whiteSpace=wrap;html=1;" vertex="1" parent="rJ0kQcTDlxO3CX2pYhGM-128">
          <mxGeometry y="112" width="160" height="47" as="geometry" />
        </mxCell>
        <mxCell id="rJ0kQcTDlxO3CX2pYhGM-134" value="" style="html=1;verticalAlign=bottom;endArrow=open;dashed=1;endSize=8;curved=0;rounded=0;entryX=0.5;entryY=1;entryDx=0;entryDy=0;exitX=0.5;exitY=0;exitDx=0;exitDy=0;" edge="1" parent="1" source="rJ0kQcTDlxO3CX2pYhGM-128" target="rJ0kQcTDlxO3CX2pYhGM-24">
          <mxGeometry relative="1" as="geometry">
            <mxPoint x="2672" y="761" as="sourcePoint" />
            <mxPoint x="2592" y="761" as="targetPoint" />
          </mxGeometry>
        </mxCell>
        <mxCell id="rJ0kQcTDlxO3CX2pYhGM-135" value="1" style="text;html=1;align=center;verticalAlign=middle;whiteSpace=wrap;rounded=0;" vertex="1" parent="1">
          <mxGeometry x="2737" y="723" width="60" height="30" as="geometry" />
        </mxCell>
        <mxCell id="rJ0kQcTDlxO3CX2pYhGM-136" value="Transaction" style="swimlane;fontStyle=1;align=center;verticalAlign=top;childLayout=stackLayout;horizontal=1;startSize=26;horizontalStack=0;resizeParent=1;resizeParentMax=0;resizeLast=0;collapsible=1;marginBottom=0;whiteSpace=wrap;html=1;" vertex="1" parent="1">
          <mxGeometry x="3008" y="895" width="160" height="268" as="geometry" />
        </mxCell>
        <mxCell id="rJ0kQcTDlxO3CX2pYhGM-137" value="+ &lt;i&gt;id: uint&lt;/i&gt;" style="text;strokeColor=none;fillColor=none;align=left;verticalAlign=top;spacingLeft=4;spacingRight=4;overflow=hidden;rotatable=0;points=[[0,0.5],[1,0.5]];portConstraint=eastwest;whiteSpace=wrap;html=1;" vertex="1" parent="rJ0kQcTDlxO3CX2pYhGM-136">
          <mxGeometry y="26" width="160" height="26" as="geometry" />
        </mxCell>
        <mxCell id="rJ0kQcTDlxO3CX2pYhGM-140" value="+ hash: String" style="text;strokeColor=none;fillColor=none;align=left;verticalAlign=top;spacingLeft=4;spacingRight=4;overflow=hidden;rotatable=0;points=[[0,0.5],[1,0.5]];portConstraint=eastwest;whiteSpace=wrap;html=1;" vertex="1" parent="rJ0kQcTDlxO3CX2pYhGM-136">
          <mxGeometry y="52" width="160" height="26" as="geometry" />
        </mxCell>
        <mxCell id="rJ0kQcTDlxO3CX2pYhGM-141" value="+ smart_contract; SmartContract" style="text;strokeColor=none;fillColor=none;align=left;verticalAlign=top;spacingLeft=4;spacingRight=4;overflow=hidden;rotatable=0;points=[[0,0.5],[1,0.5]];portConstraint=eastwest;whiteSpace=wrap;html=1;" vertex="1" parent="rJ0kQcTDlxO3CX2pYhGM-136">
          <mxGeometry y="78" width="160" height="44" as="geometry" />
        </mxCell>
        <mxCell id="rJ0kQcTDlxO3CX2pYhGM-142" value="+ tx_type: String" style="text;strokeColor=none;fillColor=none;align=left;verticalAlign=top;spacingLeft=4;spacingRight=4;overflow=hidden;rotatable=0;points=[[0,0.5],[1,0.5]];portConstraint=eastwest;whiteSpace=wrap;html=1;" vertex="1" parent="rJ0kQcTDlxO3CX2pYhGM-136">
          <mxGeometry y="122" width="160" height="26" as="geometry" />
        </mxCell>
        <mxCell id="rJ0kQcTDlxO3CX2pYhGM-143" value="+ product: Product" style="text;strokeColor=none;fillColor=none;align=left;verticalAlign=top;spacingLeft=4;spacingRight=4;overflow=hidden;rotatable=0;points=[[0,0.5],[1,0.5]];portConstraint=eastwest;whiteSpace=wrap;html=1;" vertex="1" parent="rJ0kQcTDlxO3CX2pYhGM-136">
          <mxGeometry y="148" width="160" height="26" as="geometry" />
        </mxCell>
        <mxCell id="rJ0kQcTDlxO3CX2pYhGM-144" value="+ tx_date: DateTime" style="text;strokeColor=none;fillColor=none;align=left;verticalAlign=top;spacingLeft=4;spacingRight=4;overflow=hidden;rotatable=0;points=[[0,0.5],[1,0.5]];portConstraint=eastwest;whiteSpace=wrap;html=1;" vertex="1" parent="rJ0kQcTDlxO3CX2pYhGM-136">
          <mxGeometry y="174" width="160" height="26" as="geometry" />
        </mxCell>
        <mxCell id="rJ0kQcTDlxO3CX2pYhGM-155" value="+ owner_address: String" style="text;strokeColor=none;fillColor=none;align=left;verticalAlign=top;spacingLeft=4;spacingRight=4;overflow=hidden;rotatable=0;points=[[0,0.5],[1,0.5]];portConstraint=eastwest;whiteSpace=wrap;html=1;" vertex="1" parent="rJ0kQcTDlxO3CX2pYhGM-136">
          <mxGeometry y="200" width="160" height="26" as="geometry" />
        </mxCell>
        <mxCell id="rJ0kQcTDlxO3CX2pYhGM-158" value="+ recevier_address: String" style="text;strokeColor=none;fillColor=none;align=left;verticalAlign=top;spacingLeft=4;spacingRight=4;overflow=hidden;rotatable=0;points=[[0,0.5],[1,0.5]];portConstraint=eastwest;whiteSpace=wrap;html=1;" vertex="1" parent="rJ0kQcTDlxO3CX2pYhGM-136">
          <mxGeometry y="226" width="160" height="26" as="geometry" />
        </mxCell>
        <mxCell id="rJ0kQcTDlxO3CX2pYhGM-156" value="" style="line;strokeWidth=1;fillColor=none;align=left;verticalAlign=middle;spacingTop=-1;spacingLeft=3;spacingRight=3;rotatable=0;labelPosition=right;points=[];portConstraint=eastwest;strokeColor=inherit;" vertex="1" parent="rJ0kQcTDlxO3CX2pYhGM-136">
          <mxGeometry y="252" width="160" height="8" as="geometry" />
        </mxCell>
        <mxCell id="rJ0kQcTDlxO3CX2pYhGM-138" value="" style="line;strokeWidth=1;fillColor=none;align=left;verticalAlign=middle;spacingTop=-1;spacingLeft=3;spacingRight=3;rotatable=0;labelPosition=right;points=[];portConstraint=eastwest;strokeColor=inherit;" vertex="1" parent="rJ0kQcTDlxO3CX2pYhGM-136">
          <mxGeometry y="260" width="160" height="8" as="geometry" />
        </mxCell>
        <mxCell id="rJ0kQcTDlxO3CX2pYhGM-145" value="1" style="html=1;verticalAlign=bottom;endArrow=open;dashed=1;endSize=8;curved=0;rounded=0;entryX=0.006;entryY=0.068;entryDx=0;entryDy=0;entryPerimeter=0;" edge="1" parent="1" target="rJ0kQcTDlxO3CX2pYhGM-136">
          <mxGeometry relative="1" as="geometry">
            <mxPoint x="2852" y="809" as="sourcePoint" />
            <mxPoint x="2898" y="1006" as="targetPoint" />
          </mxGeometry>
        </mxCell>
        <mxCell id="rJ0kQcTDlxO3CX2pYhGM-162" value="&amp;lt;&amp;lt;utility&amp;gt;&amp;gt;&lt;div&gt;PuchaseManager&lt;/div&gt;" style="swimlane;fontStyle=1;align=center;verticalAlign=top;childLayout=stackLayout;horizontal=1;startSize=26;horizontalStack=0;resizeParent=1;resizeParentMax=0;resizeLast=0;collapsible=1;marginBottom=0;whiteSpace=wrap;html=1;" vertex="1" parent="1">
          <mxGeometry x="3255.5" y="717" width="160" height="141" as="geometry" />
        </mxCell>
        <mxCell id="rJ0kQcTDlxO3CX2pYhGM-164" value="" style="line;strokeWidth=1;fillColor=none;align=left;verticalAlign=middle;spacingTop=-1;spacingLeft=3;spacingRight=3;rotatable=0;labelPosition=right;points=[];portConstraint=eastwest;strokeColor=inherit;" vertex="1" parent="rJ0kQcTDlxO3CX2pYhGM-162">
          <mxGeometry y="26" width="160" height="8" as="geometry" />
        </mxCell>
        <mxCell id="rJ0kQcTDlxO3CX2pYhGM-165" value="+ initializeTx(context): bool" style="text;strokeColor=none;fillColor=none;align=left;verticalAlign=top;spacingLeft=4;spacingRight=4;overflow=hidden;rotatable=0;points=[[0,0.5],[1,0.5]];portConstraint=eastwest;whiteSpace=wrap;html=1;" vertex="1" parent="rJ0kQcTDlxO3CX2pYhGM-162">
          <mxGeometry y="34" width="160" height="26" as="geometry" />
        </mxCell>
        <mxCell id="rJ0kQcTDlxO3CX2pYhGM-168" value="+ sendNFT(context): bool" style="text;strokeColor=none;fillColor=none;align=left;verticalAlign=top;spacingLeft=4;spacingRight=4;overflow=hidden;rotatable=0;points=[[0,0.5],[1,0.5]];portConstraint=eastwest;whiteSpace=wrap;html=1;" vertex="1" parent="rJ0kQcTDlxO3CX2pYhGM-162">
          <mxGeometry y="60" width="160" height="26" as="geometry" />
        </mxCell>
        <mxCell id="rJ0kQcTDlxO3CX2pYhGM-172" value="+ addNFTtoDb(context): bool" style="text;strokeColor=none;fillColor=none;align=left;verticalAlign=top;spacingLeft=4;spacingRight=4;overflow=hidden;rotatable=0;points=[[0,0.5],[1,0.5]];portConstraint=eastwest;whiteSpace=wrap;html=1;" vertex="1" parent="rJ0kQcTDlxO3CX2pYhGM-162">
          <mxGeometry y="86" width="160" height="55" as="geometry" />
        </mxCell>
        <mxCell id="rJ0kQcTDlxO3CX2pYhGM-170" value="" style="endArrow=classic;html=1;rounded=0;exitX=0.75;exitY=0;exitDx=0;exitDy=0;entryX=0.015;entryY=0.112;entryDx=0;entryDy=0;entryPerimeter=0;" edge="1" parent="1" source="rJ0kQcTDlxO3CX2pYhGM-136" target="rJ0kQcTDlxO3CX2pYhGM-164">
          <mxGeometry width="50" height="50" relative="1" as="geometry">
            <mxPoint x="3139" y="834" as="sourcePoint" />
            <mxPoint x="3189" y="784" as="targetPoint" />
          </mxGeometry>
        </mxCell>
        <mxCell id="rJ0kQcTDlxO3CX2pYhGM-171" value="is managed in" style="text;whiteSpace=wrap;html=1;align=center;" vertex="1" parent="1">
          <mxGeometry x="3131" y="772" width="77" height="31" as="geometry" />
        </mxCell>
        <mxCell id="rJ0kQcTDlxO3CX2pYhGM-181" value="Smart Contract" style="swimlane;fontStyle=1;align=center;verticalAlign=top;childLayout=stackLayout;horizontal=1;startSize=26;horizontalStack=0;resizeParent=1;resizeParentMax=0;resizeLast=0;collapsible=1;marginBottom=0;whiteSpace=wrap;html=1;" vertex="1" parent="1">
          <mxGeometry x="2743" y="1100" width="203" height="254" as="geometry" />
        </mxCell>
        <mxCell id="rJ0kQcTDlxO3CX2pYhGM-182" value="+ id: uint&lt;span style=&quot;color: rgba(0, 0, 0, 0); font-family: monospace; font-size: 0px; text-wrap: nowrap;&quot;&gt;%3CmxGraphModel%3E%3Croot%3E%3CmxCell%20id%3D%220%22%2F%3E%3CmxCell%20id%3D%221%22%20parent%3D%220%22%2F%3E%3CmxCell%20id%3D%222%22%20value%3D%22%2B%20initializeTx(context)%3A%20bool%22%20style%3D%22text%3BstrokeColor%3Dnone%3BfillColor%3Dnone%3Balign%3Dleft%3BverticalAlign%3Dtop%3BspacingLeft%3D4%3BspacingRight%3D4%3Boverflow%3Dhidden%3Brotatable%3D0%3Bpoints%3D%5B%5B0%2C0.5%5D%2C%5B1%2C0.5%5D%5D%3BportConstraint%3Deastwest%3BwhiteSpace%3Dwrap%3Bhtml%3D1%3B%22%20vertex%3D%221%22%20parent%3D%221%22%3E%3CmxGeometry%20x%3D%223184%22%20y%3D%22798%22%20width%3D%22160%22%20height%3D%2226%22%20as%3D%22geometry%22%2F%3E%3C%2FmxCell%3E%3C%2Froot%3E%3C%2FmxGraphModel%3E&lt;/span&gt;" style="text;strokeColor=none;fillColor=none;align=left;verticalAlign=top;spacingLeft=4;spacingRight=4;overflow=hidden;rotatable=0;points=[[0,0.5],[1,0.5]];portConstraint=eastwest;whiteSpace=wrap;html=1;" vertex="1" parent="rJ0kQcTDlxO3CX2pYhGM-181">
          <mxGeometry y="26" width="203" height="26" as="geometry" />
        </mxCell>
        <mxCell id="rJ0kQcTDlxO3CX2pYhGM-185" value="+ UID: UUID&lt;span style=&quot;color: rgba(0, 0, 0, 0); font-family: monospace; font-size: 0px; text-wrap: nowrap;&quot;&gt;%3CmxGraphModel%3E%3Croot%3E%3CmxCell%20id%3D%220%22%2F%3E%3CmxCell%20id%3D%221%22%20parent%3D%220%22%2F%3E%3CmxCell%20id%3D%222%22%20value%3D%22%2B%20initializeTx(context)%3A%20bool%22%20style%3D%22text%3BstrokeColor%3Dnone%3BfillColor%3Dnone%3Balign%3Dleft%3BverticalAlign%3Dtop%3BspacingLeft%3D4%3BspacingRight%3D4%3Boverflow%3Dhidden%3Brotatable%3D0%3Bpoints%3D%5B%5B0%2C0.5%5D%2C%5B1%2C0.5%5D%5D%3BportConstraint%3Deastwest%3BwhiteSpace%3Dwrap%3Bhtml%3D1%3B%22%20vertex%3D%221%22%20parent%3D%221%22%3E%3CmxGeometry%20x%3D%223184%22%20y%3D%22798%22%20width%3D%22160%22%20height%3D%2226%22%20as%3D%22geometry%22%2F%3E%3C%2FmxCell%3E%3C%2Froot%3E%3C%&lt;/span&gt;" style="text;strokeColor=none;fillColor=none;align=left;verticalAlign=top;spacingLeft=4;spacingRight=4;overflow=hidden;rotatable=0;points=[[0,0.5],[1,0.5]];portConstraint=eastwest;whiteSpace=wrap;html=1;" vertex="1" parent="rJ0kQcTDlxO3CX2pYhGM-181">
          <mxGeometry y="52" width="203" height="26" as="geometry" />
        </mxCell>
        <mxCell id="rJ0kQcTDlxO3CX2pYhGM-186" value="+ ABI: String" style="text;strokeColor=none;fillColor=none;align=left;verticalAlign=top;spacingLeft=4;spacingRight=4;overflow=hidden;rotatable=0;points=[[0,0.5],[1,0.5]];portConstraint=eastwest;whiteSpace=wrap;html=1;" vertex="1" parent="rJ0kQcTDlxO3CX2pYhGM-181">
          <mxGeometry y="78" width="203" height="26" as="geometry" />
        </mxCell>
        <mxCell id="rJ0kQcTDlxO3CX2pYhGM-187" value="+ owner_address: String&lt;span style=&quot;color: rgba(0, 0, 0, 0); font-family: monospace; font-size: 0px; text-wrap: nowrap;&quot;&gt;%3CmxGraphModel%3E%3Croot%3E%3CmxCell%20id%3D%220%22%2F%3E%3CmxCell%20id%3D%221%22%20parent%3D%220%22%2F%3E%3CmxCell%20id%3D%222%22%20value%3D%22%2B%20id%3A%20uint%26lt%3Bspan%20style%3D%26quot%3Bcolor%3A%20rgba(0%2C%200%2C%200%2C%200)%3B%20font-family%3A%20monospace%3B%20font-size%3A%200px%3B%20text-wrap%3A%20nowrap%3B%26quot%3B%26gt%3B%253CmxGraphModel%253E%253Croot%253E%253CmxCell%2520id%253D%25220%2522%252F%253E%253CmxCell%2520id%253D%25221%2522%2520parent%253D%25220%2522%252F%253E%253CmxCell%2520id%253D%25222%2522%2520value%253D%2522%252B%2520initializeTx(context)%253A%2520bool%2522%2520style%253D%2522text%253BstrokeColor%253Dnone%253BfillColor%253Dnone%253Balign%253Dleft%253BverticalAlign%253Dtop%253BspacingLeft%253D4%253BspacingRight%253D4%253Boverflow%253Dhidden%253Brotatable%253D0%253Bpoints%253D%255B%255B0%252C0.5%255D%252C%255B1%252C0.5%255D%255D%253BportConstraint%253Deastwest%253BwhiteSpace%253Dwrap%253Bhtml%253D1%253B%2522%2520vertex%253D%25221%2522%2520parent%253D%25221%2522%253E%253CmxGeometry%2520x%253D%25223184%2522%2520y%253D%2522798%2522%2520width%253D%2522160%2522%2520height%253D%252226%2522%2520as%253D%2522geometry%2522%252F%253E%253C%252FmxCell%253E%253C%252Froot%253E%253C%252FmxGraphModel%253E%26lt%3B%2Fspan%26gt%3B%22%20style%3D%22text%3BstrokeColor%3Dnone%3BfillColor%3Dnone%3Balign%3Dleft%3BverticalAlign%3Dtop%3BspacingLeft%3D4%3BspacingRight%3D4%3Boverflow%3Dhidden%3Brotatable%3D0%3Bpoints%3D%5B%5B0%2C0.5%5D%2C%5B1%2C0.5%5D%5D%3BportConstraint%3Deastwest%3BwhiteSpace%3Dwrap%3Bhtml%3D1%3B%22%20vertex%3D%221%22%20parent%3D%221%22%3E%3CmxGeometry%20x%3D%222600%22%20y%3D%22996%22%20width%3D%22160%22%20height%3D%2226%22%20as%3D%22geometry%22%2F%3E%3C%2FmxCell%3E%3C%2Froot%3E%3C%2FmxGraphModel%3E&lt;/span&gt;&lt;span style=&quot;color: rgba(0, 0, 0, 0); font-family: monospace; font-size: 0px; text-wrap: nowrap;&quot;&gt;%3CmxGraphModel%3E%3Croot%3E%3CmxCell%20id%3D%220%22%2F%3E%3CmxCell%20id%3D%221%22%20parent%3D%220%22%2F%3E%3CmxCell%20id%3D%222%22%20value%3D%22%2B%20initializeTx(context)%3A%20bool%22%20style%3D%22text%3BstrokeColor%3Dnone%3BfillColor%3Dnone%3Balign%3Dleft%3BverticalAlign%3Dtop%3BspacingLeft%3D4%3BspacingRight%3D4%3Boverflow%3Dhidden%3Brotatable%3D0%3Bpoints%3D%5B%5B0%2C0.5%5D%2C%5B1%2C0.5%5D%5D%3BportConstraint%3Deastwest%3BwhiteSpace%3Dwrap%3Bhtml%3D1%3B%22%20vertex%3D%221%22%20parent%3D%221%22%3E%3CmxGeometry%20x%3D%223184%22%20y%3D%22798%22%20width%3D%22160%22%20height%3D%2226%22%20as%3D%22geometry%22%2F%3E%3C%2FmxCell%3E%3C%2Froot%3E%3C%2FmxGraphModel%3E&lt;/span&gt;" style="text;strokeColor=none;fillColor=none;align=left;verticalAlign=top;spacingLeft=4;spacingRight=4;overflow=hidden;rotatable=0;points=[[0,0.5],[1,0.5]];portConstraint=eastwest;whiteSpace=wrap;html=1;" vertex="1" parent="rJ0kQcTDlxO3CX2pYhGM-181">
          <mxGeometry y="104" width="203" height="26" as="geometry" />
        </mxCell>
        <mxCell id="rJ0kQcTDlxO3CX2pYhGM-188" value="+ onchain_address: String&lt;span style=&quot;color: rgba(0, 0, 0, 0); font-family: monospace; font-size: 0px; text-wrap: nowrap;&quot;&gt;%3CmxGraphModel%3E%3Croot%3E%3CmxCell%20id%3D%220%22%2F%3E%3CmxCell%20id%3D%221%22%20parent%3D%220%22%2F%3E%3CmxCell%20id%3D%222%22%20value%3D%22%2B%20id%3A%20uint%26lt%3Bspan%20style%3D%26quot%3Bcolor%3A%20rgba(0%2C%200%2C%200%2C%200)%3B%20font-family%3A%20monospace%3B%20font-size%3A%200px%3B%20text-wrap%3A%20nowrap%3B%26quot%3B%26gt%3B%253CmxGraphModel%253E%253Croot%253E%253CmxCell%2520id%253D%25220%2522%252F%253E%253CmxCell%2520id%253D%25221%2522%2520parent%253D%25220%2522%252F%253E%253CmxCell%2520id%253D%25222%2522%2520value%253D%2522%252B%2520initializeTx(context)%253A%2520bool%2522%2520style%253D%2522text%253BstrokeColor%253Dnone%253BfillColor%253Dnone%253Balign%253Dleft%253BverticalAlign%253Dtop%253BspacingLeft%253D4%253BspacingRight%253D4%253Boverflow%253Dhidden%253Brotatable%253D0%253Bpoints%253D%255B%255B0%252C0.5%255D%252C%255B1%252C0.5%255D%255D%253BportConstraint%253Deastwest%253BwhiteSpace%253Dwrap%253Bhtml%253D1%253B%2522%2520vertex%253D%25221%2522%2520parent%253D%25221%2522%253E%253CmxGeometry%2520x%253D%25223184%2522%2520y%253D%2522798%2522%2520width%253D%2522160%2522%2520height%253D%252226%2522%2520as%253D%2522geometry%2522%252F%253E%253C%252FmxCell%253E%253C%252Froot%253E%253C%252FmxGraphModel%253E%26lt%3B%2Fspan%26gt%3B%22%20style%3D%22text%3BstrokeColor%3Dnone%3BfillColor%3Dnone%3Balign%3Dleft%3BverticalAlign%3Dtop%3BspacingLeft%3D4%3BspacingRight%3D4%3Boverflow%3Dhidden%3Brotatable%3D0%3Bpoints%3D%5B%5B0%2C0.5%5D%2C%5B1%2C0.5%5D%5D%3BportConstraint%3Deastwest%3BwhiteSpace%3Dwrap%3Bhtml%3D1%3B%22%20vertex%3D%221%22%20parent%3D%221%22%3E%3CmxGeometry%20x%3D%222600%22%20y%3D%22996%22%20width%3D%22160%22%20height%3D%2226%22%20as%3D%22geometry%22%2F%3E%3C%2FmxCell%3E%3C%2Froot%3E%3C%2FmxGraphModel%3E&lt;/span&gt;&lt;span style=&quot;color: rgba(0, 0, 0, 0); font-family: monospace; font-size: 0px; text-wrap: nowrap;&quot;&gt;%3CmxGraphModel%3E%3Croot%3E%3CmxCell%20id%3D%220%22%2F%3E%3CmxCell%20id%3D%221%22%20parent%3D%220%22%2F%3E%3CmxCell%20id%3D%222%22%20value%3D%22%2B%20initializeTx(context)%3A%20bool%22%20style%3D%22text%3BstrokeColor%3Dnone%3BfillColor%3Dnone%3Balign%3Dleft%3BverticalAlign%3Dtop%3BspacingLeft%3D4%3BspacingRight%3D4%3Boverflow%3Dhidden%3Brotatable%3D0%3Bpoints%3D%5B%5B0%2C0.5%5D%2C%5B1%2C0.5%5D%5D%3BportConstraint%3Deastwest%3BwhiteSpace%3Dwrap%3Bhtml%3D1%3B%22%20vertex%3D%221%22%20parent%3D%221%22%3E%3CmxGeometry%20x%3D%223184%22%20y%3D%22798%22%20width%3D%22160%22%20height%3D%2226%22%20as%3D%22geometry%22%2F%3E%3C%2FmxCell%3E%3C%2Froot%3E%3C%2FmxGraphModel%3E&lt;/span&gt;" style="text;strokeColor=none;fillColor=none;align=left;verticalAlign=top;spacingLeft=4;spacingRight=4;overflow=hidden;rotatable=0;points=[[0,0.5],[1,0.5]];portConstraint=eastwest;whiteSpace=wrap;html=1;" vertex="1" parent="rJ0kQcTDlxO3CX2pYhGM-181">
          <mxGeometry y="130" width="203" height="26" as="geometry" />
        </mxCell>
        <mxCell id="rJ0kQcTDlxO3CX2pYhGM-189" value="+ creation_date: DateTime&lt;span style=&quot;color: rgba(0, 0, 0, 0); font-family: monospace; font-size: 0px; text-wrap: nowrap;&quot;&gt;%3CmxGraphModel%3E%3Croot%3E%3CmxCell%20id%3D%220%22%2F%3E%3CmxCell%20id%3D%221%22%20parent%3D%220%22%2F%3E%3CmxCell%20id%3D%222%22%20value%3D%22%2B%20id%3A%20uint%26lt%3Bspan%20style%3D%26quot%3Bcolor%3A%20rgba(0%2C%200%2C%200%2C%200)%3B%20font-family%3A%20monospace%3B%20font-size%3A%200px%3B%20text-wrap%3A%20nowrap%3B%26quot%3B%26gt%3B%253CmxGraphModel%253E%253Croot%253E%253CmxCell%2520id%253D%25220%2522%252F%253E%253CmxCell%2520id%253D%25221%2522%2520parent%253D%25220%2522%252F%253E%253CmxCell%2520id%253D%25222%2522%2520value%253D%2522%252B%2520initializeTx(context)%253A%2520bool%2522%2520style%253D%2522text%253BstrokeColor%253Dnone%253BfillColor%253Dnone%253Balign%253Dleft%253BverticalAlign%253Dtop%253BspacingLeft%253D4%253BspacingRight%253D4%253Boverflow%253Dhidden%253Brotatable%253D0%253Bpoints%253D%255B%255B0%252C0.5%255D%252C%255B1%252C0.5%255D%255D%253BportConstraint%253Deastwest%253BwhiteSpace%253Dwrap%253Bhtml%253D1%253B%2522%2520vertex%253D%25221%2522%2520parent%253D%25221%2522%253E%253CmxGeometry%2520x%253D%25223184%2522%2520y%253D%2522798%2522%2520width%253D%2522160%2522%2520height%253D%252226%2522%2520as%253D%2522geometry%2522%252F%253E%253C%252FmxCell%253E%253C%252Froot%253E%253C%252FmxGraphModel%253E%26lt%3B%2Fspan%26gt%3B%22%20style%3D%22text%3BstrokeColor%3Dnone%3BfillColor%3Dnone%3Balign%3Dleft%3BverticalAlign%3Dtop%3BspacingLeft%3D4%3BspacingRight%3D4%3Boverflow%3Dhidden%3Brotatable%3D0%3Bpoints%3D%5B%5B0%2C0.5%5D%2C%5B1%2C0.5%5D%5D%3BportConstraint%3Deastwest%3BwhiteSpace%3Dwrap%3Bhtml%3D1%3B%22%20vertex%3D%221%22%20parent%3D%221%22%3E%3CmxGeometry%20x%3D%222600%22%20y%3D%22996%22%20width%3D%22160%22%20height%3D%2226%22%20as%3D%22geometry%22%2F%3E%3C%2FmxCell%3E%3C%2Froot%3E%3C%2FmxGraphModel%3E&lt;/span&gt;&lt;span style=&quot;color: rgba(0, 0, 0, 0); font-family: monospace; font-size: 0px; text-wrap: nowrap;&quot;&gt;%3CmxGraphModel%3E%3Croot%3E%3CmxCell%20id%3D%220%22%2F%3E%3CmxCell%20id%3D%221%22%20parent%3D%220%22%2F%3E%3CmxCell%20id%3D%222%22%20value%3D%22%2B%20initializeTx(context)%3A%20bool%22%20style%3D%22text%3BstrokeColor%3Dnone%3BfillColor%3Dnone%3Balign%3Dleft%3BverticalAlign%3Dtop%3BspacingLeft%3D4%3BspacingRight%3D4%3Boverflow%3Dhidden%3Brotatable%3D0%3Bpoints%3D%5B%5B0%2C0.5%5D%2C%5B1%2C0.5%5D%5D%3BportConstraint%3Deastwest%3BwhiteSpace%3Dwrap%3Bhtml%3D1%3B%22%20vertex%3D%221%22%20parent%3D%221%22%3E%3CmxGeometry%20x%3D%223184%22%20y%3D%22798%22%20width%3D%22160%22%20height%3D%2226%22%20as%3D%22geometry%22%2F%3E%3C%2FmxCell%3E%3C%2Froot%3E%3C%2FmxGraphModel%3E&lt;/span&gt;" style="text;strokeColor=none;fillColor=none;align=left;verticalAlign=top;spacingLeft=4;spacingRight=4;overflow=hidden;rotatable=0;points=[[0,0.5],[1,0.5]];portConstraint=eastwest;whiteSpace=wrap;html=1;" vertex="1" parent="rJ0kQcTDlxO3CX2pYhGM-181">
          <mxGeometry y="156" width="203" height="26" as="geometry" />
        </mxCell>
        <mxCell id="rJ0kQcTDlxO3CX2pYhGM-183" value="" style="line;strokeWidth=1;fillColor=none;align=left;verticalAlign=middle;spacingTop=-1;spacingLeft=3;spacingRight=3;rotatable=0;labelPosition=right;points=[];portConstraint=eastwest;strokeColor=inherit;" vertex="1" parent="rJ0kQcTDlxO3CX2pYhGM-181">
          <mxGeometry y="182" width="203" height="8" as="geometry" />
        </mxCell>
        <mxCell id="rJ0kQcTDlxO3CX2pYhGM-184" value="+create_smart_contract(context): null" style="text;strokeColor=none;fillColor=none;align=left;verticalAlign=top;spacingLeft=4;spacingRight=4;overflow=hidden;rotatable=0;points=[[0,0.5],[1,0.5]];portConstraint=eastwest;whiteSpace=wrap;html=1;" vertex="1" parent="rJ0kQcTDlxO3CX2pYhGM-181">
          <mxGeometry y="190" width="203" height="64" as="geometry" />
        </mxCell>
        <mxCell id="rJ0kQcTDlxO3CX2pYhGM-190" value="1" style="html=1;verticalAlign=bottom;endArrow=open;dashed=1;endSize=8;curved=0;rounded=0;exitX=0.586;exitY=0.013;exitDx=0;exitDy=0;exitPerimeter=0;entryX=0.052;entryY=0.107;entryDx=0;entryDy=0;entryPerimeter=0;" edge="1" parent="1" source="rJ0kQcTDlxO3CX2pYhGM-181" target="rJ0kQcTDlxO3CX2pYhGM-141">
          <mxGeometry relative="1" as="geometry">
            <mxPoint x="2823" y="1013" as="sourcePoint" />
            <mxPoint x="2743" y="1013" as="targetPoint" />
          </mxGeometry>
        </mxCell>
        <mxCell id="rJ0kQcTDlxO3CX2pYhGM-203" value="Products" style="swimlane;fontStyle=1;align=center;verticalAlign=top;childLayout=stackLayout;horizontal=1;startSize=26;horizontalStack=0;resizeParent=1;resizeParentMax=0;resizeLast=0;collapsible=1;marginBottom=0;whiteSpace=wrap;html=1;" vertex="1" parent="1">
          <mxGeometry x="3521" y="891" width="160" height="234" as="geometry" />
        </mxCell>
        <mxCell id="rJ0kQcTDlxO3CX2pYhGM-204" value="+ id: uint" style="text;strokeColor=none;fillColor=none;align=left;verticalAlign=top;spacingLeft=4;spacingRight=4;overflow=hidden;rotatable=0;points=[[0,0.5],[1,0.5]];portConstraint=eastwest;whiteSpace=wrap;html=1;" vertex="1" parent="rJ0kQcTDlxO3CX2pYhGM-203">
          <mxGeometry y="26" width="160" height="26" as="geometry" />
        </mxCell>
        <mxCell id="rJ0kQcTDlxO3CX2pYhGM-207" value="+ UID: UUID" style="text;strokeColor=none;fillColor=none;align=left;verticalAlign=top;spacingLeft=4;spacingRight=4;overflow=hidden;rotatable=0;points=[[0,0.5],[1,0.5]];portConstraint=eastwest;whiteSpace=wrap;html=1;" vertex="1" parent="rJ0kQcTDlxO3CX2pYhGM-203">
          <mxGeometry y="52" width="160" height="26" as="geometry" />
        </mxCell>
        <mxCell id="rJ0kQcTDlxO3CX2pYhGM-208" value="+ onchain_address: String" style="text;strokeColor=none;fillColor=none;align=left;verticalAlign=top;spacingLeft=4;spacingRight=4;overflow=hidden;rotatable=0;points=[[0,0.5],[1,0.5]];portConstraint=eastwest;whiteSpace=wrap;html=1;" vertex="1" parent="rJ0kQcTDlxO3CX2pYhGM-203">
          <mxGeometry y="78" width="160" height="26" as="geometry" />
        </mxCell>
        <mxCell id="rJ0kQcTDlxO3CX2pYhGM-209" value="+ name: String" style="text;strokeColor=none;fillColor=none;align=left;verticalAlign=top;spacingLeft=4;spacingRight=4;overflow=hidden;rotatable=0;points=[[0,0.5],[1,0.5]];portConstraint=eastwest;whiteSpace=wrap;html=1;" vertex="1" parent="rJ0kQcTDlxO3CX2pYhGM-203">
          <mxGeometry y="104" width="160" height="26" as="geometry" />
        </mxCell>
        <mxCell id="rJ0kQcTDlxO3CX2pYhGM-210" value="+ owner_address" style="text;strokeColor=none;fillColor=none;align=left;verticalAlign=top;spacingLeft=4;spacingRight=4;overflow=hidden;rotatable=0;points=[[0,0.5],[1,0.5]];portConstraint=eastwest;whiteSpace=wrap;html=1;" vertex="1" parent="rJ0kQcTDlxO3CX2pYhGM-203">
          <mxGeometry y="130" width="160" height="26" as="geometry" />
        </mxCell>
        <mxCell id="rJ0kQcTDlxO3CX2pYhGM-211" value="+ metadata: String" style="text;strokeColor=none;fillColor=none;align=left;verticalAlign=top;spacingLeft=4;spacingRight=4;overflow=hidden;rotatable=0;points=[[0,0.5],[1,0.5]];portConstraint=eastwest;whiteSpace=wrap;html=1;" vertex="1" parent="rJ0kQcTDlxO3CX2pYhGM-203">
          <mxGeometry y="156" width="160" height="26" as="geometry" />
        </mxCell>
        <mxCell id="rJ0kQcTDlxO3CX2pYhGM-212" value="+ product_type: ProductType" style="text;strokeColor=none;fillColor=none;align=left;verticalAlign=top;spacingLeft=4;spacingRight=4;overflow=hidden;rotatable=0;points=[[0,0.5],[1,0.5]];portConstraint=eastwest;whiteSpace=wrap;html=1;" vertex="1" parent="rJ0kQcTDlxO3CX2pYhGM-203">
          <mxGeometry y="182" width="160" height="44" as="geometry" />
        </mxCell>
        <mxCell id="rJ0kQcTDlxO3CX2pYhGM-205" value="" style="line;strokeWidth=1;fillColor=none;align=left;verticalAlign=middle;spacingTop=-1;spacingLeft=3;spacingRight=3;rotatable=0;labelPosition=right;points=[];portConstraint=eastwest;strokeColor=inherit;" vertex="1" parent="rJ0kQcTDlxO3CX2pYhGM-203">
          <mxGeometry y="226" width="160" height="8" as="geometry" />
        </mxCell>
        <mxCell id="rJ0kQcTDlxO3CX2pYhGM-213" value="" style="endArrow=classic;html=1;rounded=0;exitX=0.25;exitY=0;exitDx=0;exitDy=0;entryX=0.976;entryY=0.226;entryDx=0;entryDy=0;entryPerimeter=0;" edge="1" parent="1" source="rJ0kQcTDlxO3CX2pYhGM-203" target="rJ0kQcTDlxO3CX2pYhGM-172">
          <mxGeometry width="50" height="50" relative="1" as="geometry">
            <mxPoint x="3492" y="863" as="sourcePoint" />
            <mxPoint x="3542" y="813" as="targetPoint" />
          </mxGeometry>
        </mxCell>
        <mxCell id="rJ0kQcTDlxO3CX2pYhGM-214" value="is managed in" style="text;whiteSpace=wrap;html=1;align=center;" vertex="1" parent="1">
          <mxGeometry x="3557" y="827" width="77" height="31" as="geometry" />
        </mxCell>
        <mxCell id="rJ0kQcTDlxO3CX2pYhGM-215" value="ProductType" style="swimlane;fontStyle=1;align=center;verticalAlign=top;childLayout=stackLayout;horizontal=1;startSize=26;horizontalStack=0;resizeParent=1;resizeParentMax=0;resizeLast=0;collapsible=1;marginBottom=0;whiteSpace=wrap;html=1;" vertex="1" parent="1">
          <mxGeometry x="3282" y="1134" width="184" height="142" as="geometry" />
        </mxCell>
        <mxCell id="rJ0kQcTDlxO3CX2pYhGM-216" value="+ id: uint" style="text;strokeColor=none;fillColor=none;align=left;verticalAlign=top;spacingLeft=4;spacingRight=4;overflow=hidden;rotatable=0;points=[[0,0.5],[1,0.5]];portConstraint=eastwest;whiteSpace=wrap;html=1;" vertex="1" parent="rJ0kQcTDlxO3CX2pYhGM-215">
          <mxGeometry y="26" width="184" height="26" as="geometry" />
        </mxCell>
        <mxCell id="rJ0kQcTDlxO3CX2pYhGM-219" value="+ name: String" style="text;strokeColor=none;fillColor=none;align=left;verticalAlign=top;spacingLeft=4;spacingRight=4;overflow=hidden;rotatable=0;points=[[0,0.5],[1,0.5]];portConstraint=eastwest;whiteSpace=wrap;html=1;" vertex="1" parent="rJ0kQcTDlxO3CX2pYhGM-215">
          <mxGeometry y="52" width="184" height="26" as="geometry" />
        </mxCell>
        <mxCell id="rJ0kQcTDlxO3CX2pYhGM-217" value="" style="line;strokeWidth=1;fillColor=none;align=left;verticalAlign=middle;spacingTop=-1;spacingLeft=3;spacingRight=3;rotatable=0;labelPosition=right;points=[];portConstraint=eastwest;strokeColor=inherit;" vertex="1" parent="rJ0kQcTDlxO3CX2pYhGM-215">
          <mxGeometry y="78" width="184" height="8" as="geometry" />
        </mxCell>
        <mxCell id="rJ0kQcTDlxO3CX2pYhGM-218" value="+create_product_type(context): null" style="text;strokeColor=none;fillColor=none;align=left;verticalAlign=top;spacingLeft=4;spacingRight=4;overflow=hidden;rotatable=0;points=[[0,0.5],[1,0.5]];portConstraint=eastwest;whiteSpace=wrap;html=1;" vertex="1" parent="rJ0kQcTDlxO3CX2pYhGM-215">
          <mxGeometry y="86" width="184" height="56" as="geometry" />
        </mxCell>
        <mxCell id="rJ0kQcTDlxO3CX2pYhGM-220" value="1" style="html=1;verticalAlign=bottom;endArrow=open;dashed=1;endSize=8;curved=0;rounded=0;entryX=0;entryY=0.5;entryDx=0;entryDy=0;exitX=0.5;exitY=0;exitDx=0;exitDy=0;" edge="1" parent="1" source="rJ0kQcTDlxO3CX2pYhGM-215" target="rJ0kQcTDlxO3CX2pYhGM-212">
          <mxGeometry relative="1" as="geometry">
            <mxPoint x="3353" y="1082" as="sourcePoint" />
            <mxPoint x="3273" y="927" as="targetPoint" />
          </mxGeometry>
        </mxCell>
        <mxCell id="rJ0kQcTDlxO3CX2pYhGM-221" value="" style="endArrow=none;html=1;rounded=0;exitX=0.605;exitY=0.009;exitDx=0;exitDy=0;exitPerimeter=0;" edge="1" parent="1" source="rJ0kQcTDlxO3CX2pYhGM-162">
          <mxGeometry width="50" height="50" relative="1" as="geometry">
            <mxPoint x="3408" y="694" as="sourcePoint" />
            <mxPoint x="3283" y="591" as="targetPoint" />
          </mxGeometry>
        </mxCell>
        <mxCell id="rJ0kQcTDlxO3CX2pYhGM-222" value="" style="shape=flexArrow;endArrow=classic;html=1;rounded=0;entryX=0.75;entryY=1;entryDx=0;entryDy=0;" edge="1" parent="1" target="rJ0kQcTDlxO3CX2pYhGM-16">
          <mxGeometry width="50" height="50" relative="1" as="geometry">
            <mxPoint x="3287" y="593" as="sourcePoint" />
            <mxPoint x="3264" y="610" as="targetPoint" />
          </mxGeometry>
        </mxCell>
      </root>
    </mxGraphModel>
  </diagram>
</mxfile>
